<?xml version="1.0" standalone="no"?>
<!DOCTYPE svg PUBLIC "-//W3C//DTD SVG 20010904//EN"
 "http://www.w3.org/TR/2001/REC-SVG-20010904/DTD/svg10.dtd">
<svg version="1.0" xmlns="http://www.w3.org/2000/svg"
 width="480.000000pt" height="480.000000pt" viewBox="0 0 480.000000 480.000000"
 preserveAspectRatio="xMidYMid meet">
<g transform="translate(0.000000,480.000000) scale(0.100000,-0.100000)" stroke="none">
<path d="M0 2400 l0 -2400 2400 0 2400 0 0 2400 0 2400 -2400 0 -2400 0 0
-2400z m2100 1050 l0 -450 -450 0 -450 0 0 450 0 450 450 0 450 0 0 -450z
m1500 0 l0 -450 -450 0 -450 0 0 450 0 450 450 0 450 0 0 -450z m-1800 -1950
l0 -300 600 0 600 0 0 300 0 300 300 0 300 0 0 -600 0 -600 -1200 0 -1200 0 0
600 0 600 300 0 300 0 0 -300z"/>
</g>
</svg>