<?xml version="1.0" standalone="no"?>
<!DOCTYPE svg PUBLIC "-//W3C//DTD SVG 20010904//EN"
 "http://www.w3.org/TR/2001/REC-SVG-20010904/DTD/svg10.dtd">
<svg version="1.0" xmlns="http://www.w3.org/2000/svg"
 width="700.000000pt" height="700.000000pt" viewBox="0 0 700.000000 700.000000"
 preserveAspectRatio="xMidYMid meet">
<metadata>
Created by potrace 1.11, written by Peter Selinger 2001-2013
</metadata>
<g transform="translate(0.000000,700.000000) scale(0.100000,-0.100000)"
fill="#000000" stroke="none">
<path d="M0 3500 l0 -3500 3500 0 3500 0 0 3500 0 3500 -3500 0 -3500 0 0
-3500z m3061 2171 c1 -23 1 -1252 0 -1276 -1 -20 -7 -20 -653 -20 l-653 0 -3
656 -2 656 655 0 c596 0 655 -1 656 -16z m2187 -640 l-3 -656 -652 0 -653 0
-1 25 c-1 31 -1 1273 0 1281 1 4 296 7 656 7 l655 0 -2 -657z m-2633 -2413 c7
-4 10 -157 10 -437 l0 -431 875 0 875 0 0 431 c0 281 3 433 10 438 8 6 824 8
858 2 4 0 6 -394 5 -873 l-3 -873 -1745 0 -1745 0 -3 865 c-1 476 0 870 2 875
4 11 844 14 861 3z"/>
</g>
</svg>
