<?xml version="1.0" encoding="iso-8859-1"?>
<!-- Generator: Adobe Illustrator 19.0.0, SVG Export Plug-In . SVG Version: 6.00 Build 0)  -->
<svg version="1.1" id="Capa_1" xmlns="http://www.w3.org/2000/svg" xmlns:xlink="http://www.w3.org/1999/xlink" x="0px" y="0px"
	 viewBox="0 0 496 496" style="enable-background:new 0 0 496 496;" xml:space="preserve">
<g>
	<circle style="fill:#FFF2AA;" cx="288" cy="328" r="24"/>
	<circle style="fill:#FFF2AA;" cx="472" cy="144" r="24"/>
	<circle style="fill:#FFF2AA;" cx="144" cy="280" r="24"/>
	<circle style="fill:#FFCF00;" cx="16" cy="360" r="16"/>
	<circle style="fill:#FFCF00;" cx="456" cy="328" r="16"/>
	<circle style="fill:#FFCF00;" cx="272" cy="184" r="16"/>
	<path style="fill:#5C546A;" d="M98,299.281c-3.758,2.32-4.883,7.273-2.563,11.039c1.523,2.398,4.164,3.758,6.805,3.758
		c1.516,0,2.953-0.398,4.234-1.203c3.766-2.398,4.883-7.273,2.563-11.039C106.719,298.078,101.758,296.961,98,299.281z"/>
	<path style="fill:#5C546A;" d="M70.875,316.242c-3.758,2.312-4.875,7.273-2.555,11.039c1.516,2.398,4.156,3.758,6.797,3.758
		c1.438,0,2.961-0.398,4.242-1.203c3.758-2.32,4.883-7.281,2.563-11.039C79.602,315.039,74.641,313.922,70.875,316.242z"/>
	<path style="fill:#5C546A;" d="M43.758,333.195c-3.758,2.32-4.883,7.281-2.563,11.047C42.719,346.64,45.359,348,48,348
		c1.438,0,2.875-0.398,4.242-1.203c3.758-2.398,4.875-7.281,2.555-11.039S47.516,330.875,43.758,333.195z"/>
	<path style="fill:#5C546A;" d="M236.875,302.476c-4.156-1.359-8.719,0.883-10.156,5.125c-1.359,4.156,0.883,8.719,5.117,10.078
		c0.805,0.32,1.68,0.398,2.484,0.398c3.359,0,6.477-2.078,7.602-5.437C243.359,308.476,241.039,303.922,236.875,302.476z"/>
	<path style="fill:#5C546A;" d="M206.476,292.398c-4.156-1.359-8.641,0.883-10.078,5.039c-1.359,4.242,0.883,8.719,5.039,10.164
		c0.883,0.234,1.68,0.398,2.563,0.398c3.359,0,6.477-2.078,7.602-5.523C212.961,298.32,210.719,293.836,206.476,292.398z"/>
	<path style="fill:#5C546A;" d="M280.32,259.039c-4.398,0.477-7.523,4.477-7.039,8.883c0.398,4.078,3.914,7.039,7.914,7.117
		c0.32,0,0.641-0.078,0.883-0.078c4.398-0.484,7.602-4.484,7.117-8.883C288.719,261.68,284.719,258.555,280.32,259.039z"/>
	<path style="fill:#5C546A;" d="M278.555,243.117c4.406-0.477,7.602-4.398,7.047-8.797c-0.484-4.398-4.406-7.602-8.805-7.039
		c-4.398,0.477-7.602,4.398-7.039,8.797c0.398,4.078,3.844,7.117,7.922,7.117C277.922,243.195,278.242,243.195,278.555,243.117z"/>
	<path style="fill:#5C546A;" d="M351.437,159.922c-4.32,0.875-7.117,5.117-6.242,9.438c0.727,3.836,4.086,6.398,7.844,6.398
		c0.477,0,1.039,0,1.516-0.156c4.406-0.805,7.203-5.047,6.32-9.359C360,161.836,355.836,159.039,351.437,159.922z"/>
	<path style="fill:#5C546A;" d="M320.078,166.242c-4.32,0.875-7.117,5.039-6.242,9.359c0.719,3.836,4.086,6.477,7.844,6.477
		c0.477,0,1.039-0.078,1.516-0.156c4.406-0.883,7.203-5.125,6.32-9.445C328.64,168.156,324.398,165.359,320.078,166.242z"/>
	<path style="fill:#5C546A;" d="M382.875,153.68c-4.398,0.875-7.195,5.039-6.32,9.438c0.805,3.758,4.086,6.398,7.844,6.398
		c0.477,0,1.039-0.078,1.602-0.156c4.32-0.883,7.117-5.117,6.242-9.438C391.359,155.602,387.195,152.797,382.875,153.68z"/>
	<path style="fill:#5C546A;" d="M414.242,147.359c-4.32,0.883-7.203,5.117-6.32,9.438c0.797,3.844,4.156,6.398,7.836,6.398
		c0.563,0,1.039,0,1.602-0.078c4.32-0.875,7.117-5.117,6.32-9.438C422.797,149.359,418.554,146.477,414.242,147.359z"/>
	<path style="fill:#5C546A;" d="M465.601,217.922c-4.406-0.406-8.32,2.875-8.727,7.273c-0.398,4.406,2.883,8.242,7.281,8.641
		c0.242,0,0.484,0,0.719,0c4.086,0,7.602-3.117,7.922-7.281C473.195,222.156,470,218.32,465.601,217.922z"/>
	<path style="fill:#5C546A;" d="M462.078,265.758c4.164,0,7.602-3.117,8-7.359c0.398-4.32-2.883-8.242-7.281-8.641
		c-4.398-0.32-8.32,2.883-8.641,7.281c-0.398,4.398,2.805,8.32,7.281,8.719C461.601,265.758,461.836,265.758,462.078,265.758z"/>
	<path style="fill:#5C546A;" d="M451.359,288.961c-0.398,4.398,2.883,8.234,7.281,8.641c0.234,0,0.477,0,0.719,0
		c4.078,0,7.602-3.125,7.922-7.281c0.398-4.398-2.883-8.242-7.281-8.641S451.758,284.555,451.359,288.961z"/>
	<path style="fill:#5C546A;" d="M468.32,186c-4.398-0.398-8.242,2.875-8.641,7.281c-0.398,4.398,2.875,8.32,7.281,8.719
		c0.234,0,0.477,0,0.719,0c4.078,0,7.602-3.125,7.922-7.281C476,190.32,472.719,186.398,468.32,186z"/>
	<path style="fill:#5C546A;" d="M377.195,320c-4.477,0-8,3.602-8,8s3.523,8,8,8c4.406,0,8-3.602,8-8S381.601,320,377.195,320z"/>
	<path style="fill:#5C546A;" d="M409.195,320c-4.477,0-8,3.602-8,8s3.523,8,8,8c4.406,0,7.922-3.602,7.922-8
		S413.601,320,409.195,320z"/>
	<path style="fill:#5C546A;" d="M345.195,320c-4.477,0-8,3.602-8,8s3.523,8,8,8c4.406,0,8-3.602,8-8S349.601,320,345.195,320z"/>
</g>
<g>
</g>
<g>
</g>
<g>
</g>
<g>
</g>
<g>
</g>
<g>
</g>
<g>
</g>
<g>
</g>
<g>
</g>
<g>
</g>
<g>
</g>
<g>
</g>
<g>
</g>
<g>
</g>
<g>
</g>
</svg>
