<?xml version="1.0" encoding="iso-8859-1"?>
<!-- Generator: Adobe Illustrator 19.0.0, SVG Export Plug-In . SVG Version: 6.00 Build 0)  -->
<svg version="1.1" id="Capa_1" xmlns="http://www.w3.org/2000/svg" xmlns:xlink="http://www.w3.org/1999/xlink" x="0px" y="0px"
	 viewBox="0 0 512 512" style="enable-background:new 0 0 512 512;" xml:space="preserve">
<g>
	<path style="fill:#5C546A;" d="M72,72H24c-4.418,0-8,3.582-8,8v56h56V72z"/>
	<path style="fill:#5C546A;" d="M16,152v56c0,4.418,3.582,8,8,8h48v-64H16z"/>
	<path style="fill:#5C546A;" d="M144,136V80c0-4.418-3.582-8-8-8H88v64H144z"/>
	<path style="fill:#5C546A;" d="M88,216h48c4.418,0,8-3.582,8-8v-56H88V216z"/>
	<path style="fill:#5C546A;" d="M16,344v56c0,4.418,3.582,8,8,8h48v-64H16z"/>
	<path style="fill:#5C546A;" d="M88,408h48c4.418,0,8-3.582,8-8v-56H88V408z"/>
	<path style="fill:#5C546A;" d="M72,264H24c-4.418,0-8,3.582-8,8v56h56V264z"/>
	<path style="fill:#5C546A;" d="M144,328v-56c0-4.418-3.582-8-8-8H88v64H144z"/>
	<polygon style="fill:#888693;" points="72,264 72,328 16,328 16,344 72,344 72,408 88,408 88,344 144,344 144,328 88,328 88,264 
		88,248 72,248 	"/>
	<polygon style="fill:#888693;" points="88,216 88,152 144,152 144,136 88,136 88,72 72,72 72,136 16,136 16,152 72,152 72,216 
		72,232 88,232 	"/>
	<path style="fill:#5C546A;" d="M88,232H72H16c-4.422,0-8,3.582-8,8s3.578,8,8,8h56h16h88v-16H88z"/>
	<path style="fill:#5C546A;" d="M368,152v56c0,4.418,3.582,8,8,8h48v-64H368z"/>
	<path style="fill:#5C546A;" d="M440,216h48c4.418,0,8-3.582,8-8v-56h-56V216z"/>
	<path style="fill:#5C546A;" d="M424,72h-48c-4.418,0-8,3.582-8,8v56h56V72z"/>
	<path style="fill:#5C546A;" d="M496,136V80c0-4.418-3.582-8-8-8h-48v64H496z"/>
	<path style="fill:#5C546A;" d="M496,328v-56c0-4.418-3.582-8-8-8h-48v64H496z"/>
	<path style="fill:#5C546A;" d="M440,408h48c4.418,0,8-3.582,8-8v-56h-56V408z"/>
	<path style="fill:#5C546A;" d="M368,344v56c0,4.418,3.582,8,8,8h48v-64H368z"/>
	<path style="fill:#5C546A;" d="M424,264h-48c-4.418,0-8,3.582-8,8v56h56V264z"/>
	<polygon style="fill:#888693;" points="424,264 424,328 368,328 368,344 424,344 424,408 440,408 440,344 496,344 496,328 440,328 
		440,264 440,248 424,248 	"/>
	<polygon style="fill:#888693;" points="440,216 440,152 496,152 496,136 440,136 440,72 424,72 424,136 368,136 368,152 424,152 
		424,216 424,232 440,232 	"/>
	<path style="fill:#5C546A;" d="M496,232h-56h-16h-87.995l-0.003,16H424h16h56c4.422,0,8-3.582,8-8S500.422,232,496,232z"/>
	<path style="fill:#888693;" d="M176,376c-4.422,0-8,3.582-8,8s3.578,8,8,8h16v-16H176z"/>
	<path style="fill:#888693;" d="M336,392c4.422,0,8-3.582,8-8s-3.578-8-8-8h-16v16H336z"/>
	<path style="fill:#D5D9DE;" d="M288,272h-16h-16v88c13.255,0,24,10.745,24,24s-10.745,24-24,24v88h64V392v-16V272h-16H288z"/>
	<path style="fill:#B6B8BE;" d="M256,408c-13.255,0-24-10.745-24-24s10.745-24,24-24v-88h-16h-16h-16h-16v104v16v104h64V408z"/>
	<path style="fill:#888693;" d="M192,232h-8h-8v16v8c0,8.824,7.18,16,16,16V232z"/>
	<rect x="240" y="232" style="fill:#888693;" width="16" height="40"/>
	<path style="fill:#888693;" d="M224,216v-64h-56v44.703c0,8.25,2.813,13.016,8,19.32V216H224z"/>
	<path style="fill:#888693;" d="M256,0h-72c-8.82,0-16,7.176-16,16v120h88V0z"/>
	<rect x="240" y="152" style="fill:#888693;" width="16" height="64"/>
	<rect x="208" y="232" style="fill:#888693;" width="16" height="40"/>
	<path style="fill:#B6B8BE;" d="M336.008,216c5.109-6.262,7.992-11.18,7.992-19.301V152h-56v64h48v16h-8h-8v40
		c8.82,0,16-7.176,16-16l0.002-8l0.003-16L336.008,216z"/>
	<rect x="256" y="152" style="fill:#B6B8BE;" width="16" height="64"/>
	<rect x="288" y="232" style="fill:#B6B8BE;" width="16" height="40"/>
	<rect x="256" y="232" style="fill:#B6B8BE;" width="16" height="40"/>
	<path style="fill:#B6B8BE;" d="M344,136V16c0-8.824-7.18-16-16-16h-72v136H344z"/>
	<path style="fill:#888693;" d="M256,512h72c4.422,0,8-3.582,8-8s-3.578-8-8-8h-8h-64V512z"/>
	<polygon style="fill:#5C546A;" points="208,232 224,232 224,272 240,272 240,232 256,232 256,216 240,216 240,152 256,152 256,136 
		168,136 168,152 224,152 224,216 176,216 176,216.023 176,232 184,232 192,232 192,272 208,272 	"/>
	<circle style="fill:#888693;" cx="256" cy="384" r="24"/>
	<path style="fill:#5C546A;" d="M192,496h-8c-4.422,0-8,3.582-8,8s3.578,8,8,8h72v-16H192z"/>
	<polygon style="fill:#888693;" points="320,232 328,232 336,232 336,216 288,216 288,152 344,152 344,136 256,136 256,152 272,152 
		272,216 256,216 256,232 272,232 272,272 288,272 288,232 304,232 304,272 320,272 	"/>
</g>
<g>
</g>
<g>
</g>
<g>
</g>
<g>
</g>
<g>
</g>
<g>
</g>
<g>
</g>
<g>
</g>
<g>
</g>
<g>
</g>
<g>
</g>
<g>
</g>
<g>
</g>
<g>
</g>
<g>
</g>
</svg>
