<?xml version="1.0" encoding="iso-8859-1"?>
<!-- Generator: Adobe Illustrator 19.0.0, SVG Export Plug-In . SVG Version: 6.00 Build 0)  -->
<svg version="1.1" id="Capa_1" xmlns="http://www.w3.org/2000/svg" xmlns:xlink="http://www.w3.org/1999/xlink" x="0px" y="0px"
	 viewBox="0 0 512.324 512.324" style="enable-background:new 0 0 512.324 512.324;" xml:space="preserve">
<g>
	<polygon style="fill:none;" points="84.687,68.162 63.998,68.162 63.998,88.852 74.342,78.507 74.342,78.507 	"/>
	<path style="fill:#5C546A;" d="M185.935,172.162c-4.211,0-8.336-1.707-11.313-4.688l-38.625-38.625v3.273
		c0,0.277-0.014,0.552-0.042,0.822c0,0.002,0,0.004-0.001,0.007c-0.414,4.029-3.815,7.172-7.957,7.172h-3.352l38.664,38.664
		c5.953,5.957,14.195,9.375,22.625,9.375h14.063v-16H185.935z"/>
	<path style="fill:#B6B8BE;" d="M323.927,204.162c10.664,0,20.148,7.16,23.078,17.41l8.743,30.59h20.249v-80h-64v32H323.927z"/>
	<path style="fill:#FF9300;" d="M223.998,161.162h16h16v-77h-16v-38.02c-5.614,1.289-10.971,3.184-16,5.706v32.314h-32.403
		c-4.817,9.655-7.597,20.497-7.597,32c0,16.34,5.625,32.34,15.836,45.051c0.052,0.064,0.111,0.12,0.164,0.183v-0.233H223.998z
		 M215.998,108.162h16c4.422,0,8,3.582,8,8s-3.578,8-8,8h-16c-4.422,0-8-3.582-8-8S211.576,108.162,215.998,108.162z"/>
	<path style="fill:#FFCF00;" d="M223.998,51.848c5.029-2.522,10.386-4.417,16-5.706v38.02h16v-40c-28.199,0-52.594,16.333-64.403,40
		h32.403V51.848z"/>
	<path style="fill:#FFEDB9;" d="M271.998,84.162v-38.02c5.614,1.289,10.971,3.184,16,5.706v32.314h32.403
		c-11.809-23.667-36.204-40-64.403-40v40H271.998z"/>
	<polygon style="fill:#888693;" points="223.998,161.162 199.998,161.162 199.998,161.395 199.998,172.162 199.998,188.162 
		199.998,204.162 223.998,204.162 	"/>
	<polygon style="fill:#888693;" points="271.998,161.162 255.998,161.162 239.998,161.162 239.998,204.162 255.998,204.162 
		271.998,204.162 	"/>
	<polygon style="fill:#888693;" points="287.998,161.162 287.998,204.162 311.998,204.162 311.998,172.162 311.998,161.418 
		311.998,161.162 	"/>
	<polygon style="fill:#5C546A;" points="347.997,292.162 339.997,276.162 255.998,276.162 171.998,276.162 163.998,292.162 
		255.998,292.162 	"/>
	<path style="fill:#5C546A;" d="M119.998,310.209l-49.383,14.813c-18.195,5.461-32.266,19.605-37.633,37.84L0.326,473.904
		c-1.031,3.508,0.445,7.27,3.586,9.137c1.273,0.754,2.68,1.121,4.086,1.121c2.07,0,4.117-0.801,5.656-2.344l77.656-77.656h36.688
		c0.007,0,0.014-0.001,0.022-0.001c-5.034-6.69-8.022-15.002-8.022-23.999V310.209z"/>
	<path style="fill:#5C546A;" d="M511.998,473.904l-32.656-111.043c-5.367-18.234-19.438-32.379-37.633-37.84l-49.712-14.911v70.052
		c0,8.99-2.983,17.296-8.009,23.983c0.113,0.005,0.224,0.017,0.338,0.017h36.688l77.656,77.656c1.539,1.543,3.586,2.344,5.656,2.344
		c1.406,0,2.813-0.367,4.086-1.121C511.553,481.174,513.03,477.412,511.998,473.904z"/>
	<path style="fill:#B6B8BE;" d="M263.998,380.162v40h88c13.065,0,24.686-6.299,31.991-16.017c5.026-6.687,8.009-14.993,8.009-23.983
		H263.998z"/>
	<path style="fill:#888693;" d="M119.998,380.162c0,8.997,2.988,17.309,8.022,23.999c7.305,9.709,18.92,16.001,31.978,16.001h88v-40
		H119.998z"/>
	<path style="fill:#B6B8BE;" d="M247.998,380.162v-56c0-4.418,3.578-8,8-8v-24h-92h-28c-8.82,0-16,7.176-16,16v2.047v69.953H247.998
		z M199.998,356.162c0,4.418-3.578,8-8,8s-8-3.582-8-8v-32c0-4.418,3.578-8,8-8s8,3.582,8,8V356.162z M223.998,356.162
		c0,4.418-3.578,8-8,8s-8-3.582-8-8v-32c0-4.418,3.578-8,8-8s8,3.582,8,8V356.162z M159.998,324.162c0-4.418,3.578-8,8-8
		s8,3.582,8,8v32c0,4.418-3.578,8-8,8s-8-3.582-8-8V324.162z"/>
	<path style="fill:#D5D9DE;" d="M255.998,316.162c4.422,0,8,3.582,8,8v56h128V310.11v-1.948c0-8.824-7.18-16-16-16h-28h-92V316.162z
		 M303.998,356.162c0,4.418-3.578,8-8,8s-8-3.582-8-8v-32c0-4.418,3.578-8,8-8s8,3.582,8,8V356.162z M327.997,356.162
		c0,4.418-3.578,8-8,8c-4.422,0-8-3.582-8-8v-32c0-4.418,3.578-8,8-8c4.422,0,8,3.582,8,8V356.162z M351.997,356.162
		c0,4.418-3.578,8-8,8s-8-3.582-8-8v-32c0-4.418,3.578-8,8-8s8,3.582,8,8V356.162z"/>
	<path style="fill:#5C546A;" d="M263.998,324.162c0-4.418-3.578-8-8-8c-4.422,0-8,3.582-8,8v56v40v56c0,4.418,3.578,8,8,8
		c4.422,0,8-3.582,8-8v-56v-40V324.162z"/>
	<rect x="223.998" y="161.162" style="fill:#5C546A;" width="16" height="43"/>
	<rect x="271.998" y="161.162" style="fill:#B6B8BE;" width="16" height="43"/>
	<path style="fill:#FFCF00;" d="M415.997,220.162c4.422,0,8-3.582,8-8s-3.578-8-8-8h-8v16H415.997z"/>
	<path style="fill:#FF7400;" d="M215.998,124.162h16c4.422,0,8-3.582,8-8s-3.578-8-8-8h-16c-4.422,0-8,3.582-8,8
		S211.576,124.162,215.998,124.162z"/>
	<path style="fill:#FF9300;" d="M271.998,116.162c0,4.418,3.578,8,8,8h16c4.422,0,8-3.582,8-8s-3.578-8-8-8h-16
		C275.576,108.162,271.998,111.744,271.998,116.162z"/>
	<path style="fill:#888693;" d="M167.998,364.162c4.422,0,8-3.582,8-8v-32c0-4.418-3.578-8-8-8s-8,3.582-8,8v32
		C159.998,360.58,163.576,364.162,167.998,364.162z"/>
	<path style="fill:#888693;" d="M191.998,316.162c-4.422,0-8,3.582-8,8v32c0,4.418,3.578,8,8,8s8-3.582,8-8v-32
		C199.998,319.744,196.42,316.162,191.998,316.162z"/>
	<path style="fill:#888693;" d="M215.998,316.162c-4.422,0-8,3.582-8,8v32c0,4.418,3.578,8,8,8s8-3.582,8-8v-32
		C223.998,319.744,220.42,316.162,215.998,316.162z"/>
	<path style="fill:#B6B8BE;" d="M295.998,316.162c-4.422,0-8,3.582-8,8v32c0,4.418,3.578,8,8,8s8-3.582,8-8v-32
		C303.998,319.744,300.42,316.162,295.998,316.162z"/>
	<path style="fill:#B6B8BE;" d="M319.998,316.162c-4.422,0-8,3.582-8,8v32c0,4.418,3.578,8,8,8c4.422,0,8-3.582,8-8v-32
		C327.997,319.744,324.419,316.162,319.998,316.162z"/>
	<path style="fill:#B6B8BE;" d="M343.997,316.162c-4.422,0-8,3.582-8,8v32c0,4.418,3.578,8,8,8s8-3.582,8-8v-32
		C351.997,319.744,348.419,316.162,343.997,316.162z"/>
	<path style="fill:#FF7400;" d="M63.998,68.162h20.689l16-16H59.998c0,3.071-1.172,6.143-3.516,8.484
		c-2.344,2.344-5.414,3.516-8.484,3.516v40.69l16-16.001V68.162z"/>
	<path style="fill:#FFCF00;" d="M59.998,52.162c0-3.071-1.172-6.143-3.516-8.484l-8-8c-4.688-4.688-12.281-4.688-16.969,0
		c-4.688,4.684-4.688,12.285,0,16.969l8,8c2.344,2.344,5.414,3.516,8.484,3.516s6.141-1.172,8.484-3.516
		C58.826,58.305,59.998,55.234,59.998,52.162z"/>
	<path style="fill:#D5D9DE;" d="M323.927,204.162h-11.929h-24h-16h-16v72h84h12c2.508,0,4.875-1.18,6.391-3.184
		c1.508-2.004,1.992-4.602,1.305-7.016l-3.944-13.801l-8.743-30.59C344.076,211.322,334.591,204.162,323.927,204.162z"/>
	<path style="fill:#B6B8BE;" d="M255.998,204.162h-16h-16h-24h-11.93c-10.664,0-20.148,7.16-23.078,17.406l-12.688,44.395
		c-0.688,2.414-0.203,5.012,1.305,7.016c1.516,2.004,3.883,3.184,6.391,3.184h12h84V204.162z"/>
	<path style="fill:#FFCF00;" d="M287.998,51.848c-5.029-2.522-10.386-4.417-16-5.706v38.02h-16v77h16h16h24v0.256
		c10.337-12.784,16-28.732,16-45.256c0-11.503-2.78-22.345-7.597-32h-32.403V51.848z M295.998,108.162c4.422,0,8,3.582,8,8
		s-3.578,8-8,8h-16c-4.422,0-8-3.582-8-8s3.578-8,8-8H295.998z"/>
	<path style="fill:#888693;" d="M391.997,252.162c8.82,0,16-7.176,16-16v-16v-16v-16c0-8.824-7.18-16-16-16h-16v80H391.997z"/>
	<path style="fill:#FF9300;" d="M135.955,132.951c-0.195,1.888-1.048,3.578-2.323,4.845L74.342,78.507L63.998,88.852l-16,16.001
		l-20.859,20.86c-1.953,1.457-3.219,3.785-3.219,6.41c0,4.418,3.578,8,8,8h92.727h3.352
		C132.14,140.123,135.541,136.98,135.955,132.951z"/>
	<path style="fill:#FF9300;" d="M135.998,132.123c0,0.277-0.014,0.552-0.042,0.822C135.983,132.675,135.998,132.401,135.998,132.123
		z"/>
	<path style="fill:#FFCF00;" d="M74.342,78.507L74.342,78.507l59.289,59.289c1.275-1.267,2.128-2.957,2.323-4.845
		c0-0.002,0.001-0.004,0.001-0.007c0.028-0.27,0.042-0.544,0.042-0.822v-3.273V36.162c0-3.234-1.945-6.152-4.938-7.391
		s-6.43-0.555-8.719,1.734l-21.655,21.656l-16,16L74.342,78.507z"/>
</g>
<g>
</g>
<g>
</g>
<g>
</g>
<g>
</g>
<g>
</g>
<g>
</g>
<g>
</g>
<g>
</g>
<g>
</g>
<g>
</g>
<g>
</g>
<g>
</g>
<g>
</g>
<g>
</g>
<g>
</g>
</svg>
