<?xml version="1.0" encoding="iso-8859-1"?>
<!-- Generator: Adobe Illustrator 19.0.0, SVG Export Plug-In . SVG Version: 6.00 Build 0)  -->
<svg version="1.1" id="Capa_1" xmlns="http://www.w3.org/2000/svg" xmlns:xlink="http://www.w3.org/1999/xlink" x="0px" y="0px"
	 viewBox="0 0 512 512" style="enable-background:new 0 0 512 512;" xml:space="preserve">
<g>
	<path style="fill:#B6B8BE;" d="M418.999,150.939l16.313-16.313c3.124-3.124,3.124-8.189,0-11.314l-22.624-22.624
		c-3.124-3.124-8.189-3.124-11.314,0l-16.313,16.313C397.631,126.975,409.025,138.368,418.999,150.939z"/>
	<rect x="384" y="312" style="fill:#D5D9DE;" width="80" height="40"/>
	<path style="fill:#D5D9DE;" d="M368,286.855C368,168.383,317.758,72,256,72v224h112V286.855z"/>
	<rect x="256" y="312" style="fill:#D5D9DE;" width="112" height="40"/>
	<path style="fill:#D5D9DE;" d="M260.701,72.06c0.514,0.012,1.026,0.027,1.539,0.042C261.727,72.086,261.214,72.071,260.701,72.06z"
		/>
	<path style="fill:#D5D9DE;" d="M271.051,72.549c1.056,0.077,2.108,0.165,3.159,0.258C273.159,72.715,272.107,72.624,271.051,72.549
		z"/>
	<path style="fill:#D5D9DE;" d="M265.438,72.223c0.583,0.027,1.166,0.048,1.748,0.079C266.604,72.272,266.02,72.25,265.438,72.223z"
		/>
	<path style="fill:#D5D9DE;" d="M314.004,80.291C355.859,117.837,384,195.304,384,286.855V296h80v-16
		c0-48.718-16.842-93.572-45.001-129.061c-9.974-12.57-21.367-23.964-33.937-33.938c-15.614-12.389-33.041-22.584-51.814-30.119
		c-18.29-7.342-37.855-12.151-58.263-14.007C288.395,74.112,301.438,76.635,314.004,80.291z"/>
	<rect x="144" y="312" style="fill:#B6B8BE;" width="112" height="40"/>
	<path style="fill:#B6B8BE;" d="M128,286.855c0-91.551,28.141-169.018,69.996-206.565c12.566-3.656,25.609-6.179,39.02-7.415
		C131.186,82.496,48,171.709,48,280v16h80V286.855z"/>
	<rect x="48" y="312" style="fill:#B6B8BE;" width="80" height="40"/>
	<path style="fill:#B6B8BE;" d="M249.76,72.102c0.513-0.015,1.026-0.03,1.539-0.042C250.785,72.071,250.273,72.086,249.76,72.102z"
		/>
	<path style="fill:#B6B8BE;" d="M244.815,72.303c0.581-0.031,1.165-0.053,1.748-0.079C245.98,72.25,245.396,72.272,244.815,72.303z"
		/>
	<path style="fill:#B6B8BE;" d="M237.789,72.806c1.051-0.093,2.104-0.181,3.159-0.258C239.893,72.624,238.841,72.715,237.789,72.806
		z"/>
	<path style="fill:#B6B8BE;" d="M256,72c-61.758,0-112,96.383-112,214.855V296h112V72z"/>
	<path style="fill:#B6B8BE;" d="M384,286.855c0-91.551-28.141-169.018-69.996-206.565c-12.566-3.656-25.609-6.179-39.02-7.415
		c-0.258-0.024-0.516-0.046-0.774-0.069c-1.051-0.093-2.104-0.181-3.159-0.258c-1.285-0.094-2.574-0.176-3.866-0.246
		c-0.581-0.031-1.165-0.053-1.748-0.079c-1.064-0.049-2.13-0.09-3.198-0.122c-0.513-0.015-1.026-0.03-1.539-0.042
		C259.138,72.024,257.572,72,256,72c61.758,0,112,96.383,112,214.855V296H256v16h112v40h16v-40h80v-16h-80V286.855z"/>
	<path style="fill:#888693;" d="M216,400c0-8.824,7.18-16,16-16h48c8.82,0,16,7.176,16,16v48h184v-88c0-4.418-3.578-8-8-8h-8h-80
		h-16H256H144v-40h112v-16H144v-9.145C144,168.383,194.242,72,256,72c1.572,0,3.138,0.024,4.701,0.06
		c0.514,0.011,1.026,0.027,1.539,0.042c1.068,0.032,2.134,0.073,3.198,0.122c0.583,0.026,1.166,0.048,1.748,0.079
		c1.292,0.07,2.58,0.152,3.866,0.246c1.056,0.076,2.108,0.166,3.159,0.258c0.258,0.023,0.516,0.045,0.774,0.069
		c20.408,1.855,39.974,6.665,58.263,14.007l5.874-14.685c1.667-4.168-0.383-8.985-4.607-10.506C309.99,52.857,283.568,48,256,48
		C130.612,48,28.456,147.472,24.142,271.81c-0.156,4.486,3.551,8.19,8.04,8.19H48c0-108.291,83.186-197.503,189.016-207.125
		c-13.411,1.236-26.454,3.759-39.02,7.415C156.141,117.837,128,195.304,128,286.855V296H48v16h80v40H48h-8c-4.422,0-8,3.582-8,8v88
		h184V400z M240.949,72.549c-1.056,0.077-2.108,0.165-3.159,0.258C238.841,72.715,239.893,72.624,240.949,72.549z M251.299,72.06
		c-0.514,0.012-1.026,0.027-1.539,0.042C250.273,72.086,250.785,72.071,251.299,72.06z M246.562,72.223
		c-0.583,0.027-1.166,0.048-1.748,0.079C245.396,72.272,245.98,72.25,246.562,72.223z M368,424c0,4.418-3.578,8-8,8h-32
		c-4.422,0-8-3.582-8-8v-32c0-4.418,3.578-8,8-8h32c4.422,0,8,3.582,8,8V424z M440,424c0,4.418-3.578,8-8,8h-32
		c-4.422,0-8-3.582-8-8v-32c0-4.418,3.578-8,8-8h32c4.422,0,8,3.582,8,8V424z M120,424c0,4.418-3.578,8-8,8H80c-4.422,0-8-3.582-8-8
		v-32c0-4.418,3.578-8,8-8h32c4.422,0,8,3.582,8,8V424z M184,432h-32c-4.422,0-8-3.582-8-8v-32c0-4.418,3.578-8,8-8h32
		c4.422,0,8,3.582,8,8v32C192,428.418,188.422,432,184,432z"/>
	<path style="fill:#5C546A;" d="M504,448h-24H296v-48c0-8.824-7.18-16-16-16h-48c-8.82,0-16,7.176-16,16v48H32H8
		c-4.422,0-8,3.582-8,8s3.578,8,8,8h32h184h64h184h32c4.422,0,8-3.582,8-8S508.422,448,504,448z"/>
	<path style="fill:#5C546A;" d="M184,384h-32c-4.422,0-8,3.582-8,8v32c0,4.418,3.578,8,8,8h32c4.422,0,8-3.582,8-8v-32
		C192,387.582,188.422,384,184,384z"/>
	<path style="fill:#5C546A;" d="M112,384H80c-4.422,0-8,3.582-8,8v32c0,4.418,3.578,8,8,8h32c4.422,0,8-3.582,8-8v-32
		C120,387.582,116.422,384,112,384z"/>
	<path style="fill:#5C546A;" d="M432,384h-32c-4.422,0-8,3.582-8,8v32c0,4.418,3.578,8,8,8h32c4.422,0,8-3.582,8-8v-32
		C440,387.582,436.422,384,432,384z"/>
	<path style="fill:#5C546A;" d="M360,384h-32c-4.422,0-8,3.582-8,8v32c0,4.418,3.578,8,8,8h32c4.422,0,8-3.582,8-8v-32
		C368,387.582,364.422,384,360,384z"/>
</g>
<g>
</g>
<g>
</g>
<g>
</g>
<g>
</g>
<g>
</g>
<g>
</g>
<g>
</g>
<g>
</g>
<g>
</g>
<g>
</g>
<g>
</g>
<g>
</g>
<g>
</g>
<g>
</g>
<g>
</g>
</svg>
