<?xml version="1.0" encoding="iso-8859-1"?>
<!-- Generator: Adobe Illustrator 19.0.0, SVG Export Plug-In . SVG Version: 6.00 Build 0)  -->
<svg version="1.1" id="Capa_1" xmlns="http://www.w3.org/2000/svg" xmlns:xlink="http://www.w3.org/1999/xlink" x="0px" y="0px"
	 viewBox="0 0 488 488" style="enable-background:new 0 0 488 488;" xml:space="preserve">
<g>
	<path style="fill:none;stroke:#B6B8BE;stroke-width:0;stroke-linecap:round;stroke-linejoin:round;" d="M231.758,28
		c-1.333,0-1.847,0-1.908,0"/>
	<path style="fill:#B6B8BE;" d="M57.359,103.52c1.516,1.277,3.359,1.918,5.195,1.918c2.242,0,4.484-0.957,6.086-2.801
		c2.875-3.277,2.477-8.398-0.805-11.277c-3.359-2.879-8.398-2.563-11.281,0.801C53.602,95.52,54,100.559,57.359,103.52z"/>
	<path style="fill:#B6B8BE;" d="M39.281,358.558c-3.68,2.398-4.805,7.359-2.406,11.039c1.523,2.402,4.164,3.68,6.727,3.68
		c1.516,0,3.039-0.398,4.398-1.277c3.68-2.402,4.719-7.363,2.398-11.043C47.922,357.199,42.961,356.16,39.281,358.558z"/>
	<path style="fill:#B6B8BE;" d="M57.602,384.797c-3.359,2.883-3.68,7.922-0.805,11.281c1.523,1.84,3.758,2.719,6,2.719
		c1.922,0,3.758-0.637,5.281-1.918c3.281-2.879,3.68-8,0.797-11.281C66,382.238,60.875,381.918,57.602,384.797z"/>
	<path style="fill:#B6B8BE;" d="M90.641,407.359h0.078c-3.359-2.879-8.398-2.563-11.359,0.801
		c-2.883,3.359-2.484,8.398,0.797,11.277c1.523,1.359,3.445,2,5.281,2c2.242,0,4.484-0.957,6.078-2.801
		C94.398,415.277,94,410.238,90.641,407.359z"/>
	<path style="fill:#B6B8BE;" d="M115.359,425.84c-3.68-2.402-8.641-1.281-11.039,2.398c-2.398,3.762-1.281,8.719,2.398,11.039
		c1.359,0.883,2.797,1.281,4.32,1.281c2.641,0,5.203-1.281,6.719-3.68C120.156,433.199,119.117,428.238,115.359,425.84z"/>
	<path style="fill:#B6B8BE;" d="M8,252.238c4.398-0.078,8-3.602,8-8c0-4.48-3.602-8-8-8s-8,3.52-8,8
		C0,248.637,3.602,252.238,8,252.238z"/>
	<path style="fill:#B6B8BE;" d="M35.516,333.918c-1.836-4-6.555-5.758-10.641-3.918c-4,1.84-5.758,6.559-3.914,10.559
		c1.359,2.961,4.234,4.719,7.281,4.719c1.117,0,2.234-0.238,3.359-0.797C35.602,342.636,37.359,337.918,35.516,333.918z"/>
	<path style="fill:#B6B8BE;" d="M24.719,305.039c-1.203-4.242-5.68-6.64-9.922-5.359c-4.242,1.199-6.641,5.679-5.438,9.918
		c1.039,3.441,4.242,5.762,7.68,5.762c0.719,0,1.516-0.16,2.242-0.402C23.516,313.758,26,309.277,24.719,305.039z"/>
	<path style="fill:#B6B8BE;" d="M293.039,451.277c-4.242,1.203-6.641,5.68-5.359,9.922c1.039,3.438,4.156,5.68,7.68,5.68
		c0.719,0,1.516-0.082,2.242-0.32c4.234-1.199,6.641-5.68,5.438-9.922C301.758,452.398,297.359,450,293.039,451.277z"/>
	<path style="fill:#B6B8BE;" d="M262.961,457.84c-4.406,0.559-7.445,4.641-6.805,9.039c0.641,4,4,6.801,7.922,6.801
		c0.398,0,0.797,0,1.203-0.082c-0.086,0-0.086,0-0.086,0c4.406-0.559,7.445-4.641,6.805-9.039
		C271.359,460.238,267.359,457.199,262.961,457.84z"/>
	<path style="fill:#B6B8BE;" d="M321.922,440.48c-4,1.84-5.766,6.559-3.922,10.559c1.281,2.961,4.242,4.641,7.281,4.641
		c1.117,0,2.234-0.242,3.273-0.723c4-1.84,5.844-6.559,3.922-10.559C330.64,440.32,325.922,438.636,321.922,440.48z"/>
	<path style="fill:#B6B8BE;" d="M9.117,220.238c0.398,0.082,0.719,0.082,1.125,0.082c3.914,0,7.359-2.883,7.914-6.883
		c0.641-4.398-2.477-8.398-6.797-9.039c-4.398-0.641-8.484,2.398-9.039,6.801C1.68,215.598,4.719,219.598,9.117,220.238z"/>
	<path style="fill:#B6B8BE;" d="M348.961,425.597c-3.766,2.402-4.805,7.359-2.406,11.121c1.523,2.32,4.086,3.602,6.727,3.602
		c1.516,0,2.961-0.402,4.32-1.281c3.758-2.402,4.797-7.281,2.398-11.039C357.601,424.32,352.64,423.199,348.961,425.597z"/>
	<path style="fill:#B6B8BE;" d="M201.437,457.84c-4.398-0.641-8.398,2.398-9.039,6.797c-0.563,4.402,2.398,8.402,6.797,9.043
		c0.406,0.078,0.805,0.078,1.203,0.078c3.844,0,7.281-2.879,7.844-6.879C208.875,462.48,205.836,458.48,201.437,457.84z"/>
	<path style="fill:#B6B8BE;" d="M171.359,451.359c-4.242-1.199-8.719,1.199-9.922,5.438c-1.281,4.242,1.117,8.723,5.359,9.922
		c0.078,0,0.078,0,0.078,0c0.727,0.238,1.445,0.32,2.164,0.32c3.516,0,6.719-2.242,7.758-5.762
		C178,457.039,175.516,452.558,171.359,451.359z"/>
	<path style="fill:#B6B8BE;" d="M232.242,460c-4.484,0-8,3.598-8,8c0,4.398,3.516,8,8,8c4.398,0,8-3.602,8-8
		C240.242,463.597,236.641,460,232.242,460z"/>
	<path style="fill:#B6B8BE;" d="M142.398,440.636c-4-1.84-8.719-0.078-10.563,3.922c-1.836,4-0.078,8.801,3.922,10.641
		c1.117,0.48,2.242,0.719,3.359,0.719c3.039,0,5.922-1.758,7.281-4.719C148.242,447.199,146.477,442.48,142.398,440.636z"/>
	<path style="fill:#B6B8BE;" d="M321.601,47.359c1.039,0.48,2.234,0.719,3.273,0.719c3.047,0,5.922-1.68,7.281-4.641
		c1.844-4,0.086-8.801-3.914-10.641c-4-1.758-8.805,0-10.641,4C315.836,40.797,317.601,45.52,321.601,47.359z"/>
	<path style="fill:#B6B8BE;" d="M373.601,407.117c-3.359,2.883-3.766,7.922-0.805,11.281c1.602,1.84,3.758,2.719,6,2.719
		c1.922,0,3.758-0.637,5.281-1.918c3.359-2.879,3.68-8,0.797-11.281C381.922,404.558,376.875,404.238,373.601,407.117z"/>
	<path style="fill:#B6B8BE;" d="M348.64,62.16c1.359,0.879,2.875,1.277,4.32,1.277c2.641,0,5.195-1.277,6.719-3.68
		c2.398-3.758,1.359-8.641-2.398-11.039c-3.68-2.398-8.641-1.359-11.039,2.398C343.836,54.797,344.961,59.758,348.64,62.16z"/>
	<path style="fill:#B6B8BE;" d="M292.719,36.637c0.719,0.242,1.438,0.32,2.156,0.32c3.523,0,6.727-2.238,7.766-5.758
		c1.195-4.242-1.203-8.719-5.445-9.922c-4.234-1.199-8.719,1.203-9.914,5.441C286,30.957,288.476,35.438,292.719,36.637z"/>
	<path style="fill:#B6B8BE;" d="M262.555,30.16c0.406,0.078,0.805,0.078,1.125,0.078c3.922,0,7.359-2.879,7.922-6.879
		c0.641-4.402-2.406-8.402-6.805-9.039c-4.398-0.641-8.398,2.398-9.039,6.797C255.117,25.438,258.156,29.52,262.555,30.16z"/>
	<path style="fill:#B6B8BE;" d="M231.758,28c0.029,0,0.049,0,0.078,0c4.406,0,8-3.602,8-8c-0.078-4.402-3.594-8-8.078-8
		c-4.398,0-8,3.598-8,8C223.758,24.398,227.359,28,231.758,28z"/>
	<path style="fill:#B6B8BE;" d="M439.281,182.957c0.961,3.441,4.156,5.762,7.594,5.762c0.805,0,1.523-0.16,2.32-0.32
		c4.242-1.281,6.641-5.762,5.445-9.918c0-0.082,0-0.082,0-0.082c-1.281-4.238-5.766-6.641-10-5.359
		C440.398,174.238,438,178.719,439.281,182.957z"/>
	<path style="fill:#B6B8BE;" d="M14.719,188.719c0.719,0.238,1.523,0.32,2.242,0.32c3.438,0,6.641-2.242,7.68-5.762
		c1.195-4.238-1.203-8.641-5.445-9.918c-4.234-1.199-8.719,1.277-9.914,5.52c0-0.082,0-0.082,0-0.082
		C8.078,183.039,10.477,187.52,14.719,188.719z"/>
	<path style="fill:#B6B8BE;" d="M373.359,80.637c1.516,1.281,3.359,1.922,5.195,1.922c2.242,0,4.484-0.879,6.086-2.719
		c2.875-3.359,2.477-8.402-0.805-11.281c-3.359-2.879-8.398-2.559-11.281,0.801C369.601,72.719,370,77.758,373.359,80.637z"/>
	<path style="fill:#B6B8BE;" d="M428.476,154.078c1.359,2.961,4.242,4.719,7.281,4.719c1.039,0,2.242-0.238,3.281-0.797
		c4-1.84,5.758-6.563,3.922-10.563c0.078,0,0.078,0,0.078,0c-1.844-4-6.641-5.758-10.641-3.918S426.64,150.078,428.476,154.078z"/>
	<path style="fill:#B6B8BE;" d="M39.117,129.758c1.281,0.879,2.805,1.281,4.32,1.281c2.641,0,5.203-1.281,6.719-3.68
		c2.398-3.762,1.281-8.723-2.398-11.039c-3.758-2.402-8.719-1.363-11.039,2.398C34.32,122.398,35.359,127.359,39.117,129.758z"/>
	<path style="fill:#B6B8BE;" d="M24.797,158.398c1.039,0.48,2.164,0.719,3.281,0.719c3.039,0,5.922-1.758,7.281-4.719
		c1.836-4,0.078-8.719-3.922-10.559c-4.078-1.84-8.797-0.082-10.641,3.918C18.961,151.758,20.719,156.559,24.797,158.398z"/>
	<path style="fill:#B6B8BE;" d="M199.922,30.238c0.398,0,0.719,0,1.117-0.078c4.398-0.641,7.438-4.641,6.797-9.043
		c-0.641-4.398-4.719-7.438-9.039-6.797c-4.398,0.637-7.438,4.719-6.797,9.039C192.555,27.359,196,30.238,199.922,30.238z"/>
	<path style="fill:#B6B8BE;" d="M85.195,82.797c1.844,0,3.68-0.637,5.203-1.918c3.359-2.961,3.758-8,0.797-11.359
		c-2.875-3.281-7.914-3.68-11.273-0.723c-3.367,2.883-3.68,7.922-0.805,11.281C80.719,81.84,82.961,82.797,85.195,82.797z"/>
	<path style="fill:#B6B8BE;" d="M168.719,37.039c0.719,0,1.438-0.082,2.242-0.32c4.234-1.281,6.641-5.68,5.359-9.922
		c-1.203-4.238-5.68-6.637-9.922-5.438c-4.242,1.277-6.641,5.68-5.359,10C162.078,34.797,165.195,37.039,168.719,37.039z"/>
	<path style="fill:#B6B8BE;" d="M110.719,63.598c1.523,0,3.039-0.398,4.32-1.277c3.758-2.402,4.797-7.281,2.398-11.043
		c-2.398-3.68-7.359-4.797-11.039-2.398C102.641,51.277,101.602,56.238,104,60C105.516,62.32,108.078,63.598,110.719,63.598z"/>
	<path style="fill:#B6B8BE;" d="M138.797,48.238c1.039,0,2.242-0.238,3.281-0.719c4-1.84,5.758-6.563,3.922-10.563
		c-1.844-4.078-6.563-5.84-10.563-4c-4.078,1.84-5.836,6.641-4,10.641C132.797,46.559,135.758,48.238,138.797,48.238z"/>
	<path style="fill:#B6B8BE;" d="M11.359,284c4.398-0.641,7.438-4.641,6.797-9.043c-0.641-4.398-4.641-7.438-9.039-6.797
		c-4.398,0.637-7.438,4.719-6.797,9.039c0.555,4,4,6.879,7.922,6.879C10.641,284.078,11.039,284.078,11.359,284z"/>
	<path style="fill:#B6B8BE;" d="M457.617,212.041c0.2,0.01,0.396,0.03,0.595,0.044c0.333,0.023,0.667,0.043,0.997,0.076
		c0.251,0.025,0.499,0.061,0.748,0.092c0.273,0.034,0.547,0.063,0.817,0.104c0.28,0.042,0.557,0.095,0.835,0.144
		c0.018,0.003,0.037,0.006,0.055,0.009c0.038-0.56,0.022-1.132-0.063-1.713c-0.563-4.398-4.641-7.438-9.047-6.797
		c-4.313,0.637-7.359,4.719-6.719,9.039c0.028,0.198,0.068,0.39,0.109,0.582C449.108,212.574,452.486,212,456,212
		C456.542,212,457.081,212.014,457.617,212.041z"/>
	<path style="fill:#B6B8BE;" d="M439.195,329.597c-4-1.84-8.719-0.078-10.555,3.922c-1.844,4.078-0.086,8.801,3.914,10.641
		c1.125,0.477,2.242,0.719,3.367,0.719c3.039,0,5.914-1.762,7.273-4.719C445.039,336.16,443.195,331.437,439.195,329.597z"/>
	<path style="fill:#B6B8BE;" d="M445.876,274.355c-0.012,0.068-0.03,0.134-0.04,0.203c-0.641,4.32,2.406,8.398,6.805,9.039
		c0.398,0,0.797,0.082,1.117,0.082c3.922,0,7.359-2.883,7.922-6.883c0-0.078,0-0.078,0-0.078c0.062-0.419,0.08-0.834,0.075-1.245
		C459.886,275.813,457.965,276,456,276C452.46,276,449.059,275.417,445.876,274.355z"/>
	<path style="fill:#B6B8BE;" d="M424.875,358.238c-3.68-2.398-8.633-1.359-11.039,2.398c-2.398,3.684-1.281,8.641,2.406,11.043
		c1.359,0.879,2.875,1.277,4.313,1.277c2.641,0,5.203-1.277,6.727-3.68C429.679,365.519,428.64,360.558,424.875,358.238z"/>
	<path style="fill:#B6B8BE;" d="M449.281,299.199c-4.242-1.199-8.641,1.199-9.922,5.437c-1.281,4.242,1.195,8.723,5.438,9.922
		c0.719,0.238,1.523,0.32,2.242,0.32c3.438,0,6.641-2.242,7.68-5.762C455.922,304.879,453.515,300.48,449.281,299.199z"/>
	<path style="fill:#B6B8BE;" d="M401.195,105.199c1.844,0,3.68-0.641,5.203-1.922c3.359-2.957,3.758-8,0.797-11.277
		c0-0.082,0-0.082,0-0.082c-2.875-3.281-7.914-3.68-11.273-0.801c-3.281,2.961-3.68,8-0.805,11.363
		C396.719,104.238,398.961,105.199,401.195,105.199z"/>
	<path style="fill:#B6B8BE;" d="M406.64,384.48c-3.359-2.883-8.398-2.48-11.281,0.797c-2.883,3.359-2.484,8.402,0.797,11.281
		c1.523,1.359,3.359,2,5.281,2c2.242,0,4.484-0.961,6-2.801C410.398,392.398,410,387.359,406.64,384.48z"/>
	<path style="fill:#B6B8BE;" d="M420.398,130.797c1.438,0,2.961-0.477,4.32-1.359c3.68-2.32,4.797-7.277,2.398-11.039
		c-2.398-3.68-7.359-4.719-11.039-2.32c-3.758,2.32-4.797,7.281-2.398,11.039C415.195,129.438,417.758,130.797,420.398,130.797z"/>
	<path style="fill:#48BBEE;" d="M259.609,86.381c0.549,0.096,1.097,0.195,1.644,0.297C260.705,86.576,260.158,86.476,259.609,86.381
		z"/>
	<path style="fill:#48BBEE;" d="M284.785,92.924c12.796,4.475,24.851,10.529,35.933,17.927c-0.013,0.001-0.026,0.002-0.039,0.002
		c11.163,7.45,21.338,16.264,30.281,26.209l0.012-0.022c2.773,3.083,5.413,6.286,7.941,9.579c0,0,0.001,0.001,0.001,0.001
		c1.891,2.463,3.711,4.982,5.459,7.555c0.135,0.199,0.27,0.399,0.405,0.598c1.622,2.412,3.18,4.869,4.673,7.371
		c0.223,0.373,0.444,0.748,0.663,1.123c1.135,1.938,2.245,3.893,3.3,5.883l-0.008,0.026c8.987,16.955,15.022,35.718,17.404,55.608
		c-0.377,0.047-0.764,0.054-1.139-0.06l-51.38-16.328l2.396,10.651c0.505,2.232,1.88,4.078,3.87,5.206
		c1.99,1.125,4.281,1.346,6.448,0.63l5.932-1.964c0.818-0.273,1.703-0.138,2.401,0.37c0.693,0.5,1.104,1.305,1.104,2.161v14.49v0.01
		c0,5.911-2.802,11.472-7.552,14.99l-15.258,12.27c-2.35,1.89-5.799,1.457-7.609-0.956l-24.692-32.922
		c-2.604-3.472-6.204-6.066-10.32-7.439l-9.678-3.226l40.359,52.414c3.625,3.018,8.297,4.617,13.224,4.276l7.573-0.518
		c0.818-0.036,1.62,0.268,2.172,0.883c0.547,0.615,0.781,1.445,0.635,2.255l-3.115,17.167c-0.104,0.56-0.38,1.073-0.797,1.464
		l-31.25,29.443l-23.349,59.021c-0.302,0.768-0.948,1.354-1.745,1.581c-2.943,0.846-5.938,1.263-8.911,1.263
		c-5.422,0-10.786-1.388-15.651-4.117c-7.484-4.195-12.859-11.044-15.135-19.289c-1.802-6.531-2.677-10.883-2.677-13.305v-22.26
		l-3.604-1.385c-8.302-3.193-15.641-8.536-21.229-15.453l-8.25-10.219l-35.448,6.328c-1.525,0.276-3.054,0.383-4.57,0.361
		c10.237,37.797,33.968,70.045,65.717,91.241c-2.416,0.108-4.84,0.184-7.283,0.184c88.366,0,160-71.634,160-160
		C392,174.132,347.212,114.734,284.785,92.924z"/>
	<path style="fill:#48BBEE;" d="M209.536,209.133c5.714,0,11.307,1.669,16.156,4.878l13.694,9.066
		c2.737,1.812,6.157,2.263,9.27,1.222l24.634-8.236l4.12-3.721c2.469-2.229,3.875-5.417,3.865-8.745
		c-0.016-2.849-1.068-5.586-2.927-7.701l-26.029,7.723c-0.899,0.267-1.872,0.043-2.564-0.591l-17.484-16.002
		c-1.161-1.065-2.453-0.651-2.818-0.498c-0.365,0.151-1.573,0.768-1.646,2.336l1.505,11.873c0.135,1.099-0.422,2.169-1.406,2.685
		c-0.979,0.516-2.182,0.372-3.01-0.365l-14.516-12.87c-4.99-2.635-11.109-1.849-15.292,2.023l-4.641,11.657
		c-0.729,1.83-1.95,3.423-3.528,4.601l-7.368,5.502l24.849-4.385C206.109,209.284,207.828,209.133,209.536,209.133z"/>
	<path style="fill:#48BBEE;" d="M239.529,84.181c0.367,0.017,0.735,0.032,1.101,0.052C240.264,84.214,239.896,84.198,239.529,84.181
		z"/>
	<path style="fill:#48BBEE;" d="M308.786,178.992c1.089,0,2.188-0.333,3.135-1.023c0.283-0.207,0.537-0.439,0.767-0.687
		c0.681-0.745,1.109-1.658,1.295-2.615l0.021-0.006c0.269-1.401-0.008-2.902-0.916-4.145l-13.651-18.724
		c-1.734-2.375-5.068-2.904-7.448-1.167c-2.38,1.734-2.906,5.073-1.167,7.453l13.651,18.724
		C305.515,178.232,307.14,178.992,308.786,178.992z"/>
	<path style="fill:#48BBEE;" d="M266.659,87.776c1.03,0.228,2.057,0.465,3.08,0.713C268.716,88.241,267.689,88.004,266.659,87.776z"
		/>
	<path style="fill:#48BBEE;" d="M263.057,87.023c0.574,0.113,1.149,0.224,1.721,0.344C264.206,87.247,263.631,87.136,263.057,87.023
		z"/>
	<path style="fill:#48BBEE;" d="M235.705,84.047c0.369,0.008,0.737,0.02,1.105,0.031C236.442,84.067,236.074,84.055,235.705,84.047z
		"/>
	<path style="fill:#48BBEE;" d="M282.047,91.994c0.867,0.286,1.732,0.578,2.592,0.878C283.778,92.573,282.914,92.28,282.047,91.994z
		"/>
	<path style="fill:#48BBEE;" d="M244.229,84.461c0.179,0.013,0.356,0.031,0.535,0.045C244.585,84.493,244.408,84.475,244.229,84.461
		z"/>
	<path style="fill:#48BBEE;" d="M274.153,89.624c2.529,0.69,5.034,1.438,7.512,2.247C279.187,91.062,276.682,90.313,274.153,89.624z
		"/>
	<path style="fill:#48BBEE;" d="M271.014,88.8c0.704,0.177,1.405,0.358,2.105,0.544C272.419,89.158,271.718,88.976,271.014,88.8z"/>
	<path style="fill:#48BBEE;" d="M279.717,184.113c0.014-0.01,0.029-0.017,0.043-0.027l8.302-6.138
		c0.343-0.254,0.559-0.597,0.822-0.91l0.149-0.05c1.483-1.844,1.619-4.51,0.144-6.502c-1.74-2.365-5.089-2.87-7.458-1.117
		l-6.885,5.094h-13.057c-2.948,0-5.333,2.388-5.333,5.333s2.385,5.333,5.333,5.333h2.833h11.979
		C277.712,185.13,278.809,184.771,279.717,184.113z"/>
	<path style="fill:#48BBEE;" d="M251.507,85.186c0.437,0.053,0.874,0.104,1.31,0.161C252.381,85.29,251.944,85.239,251.507,85.186z"
		/>
	<path style="fill:#48BBEE;" d="M256.144,85.813c0.418,0.063,0.834,0.135,1.251,0.201C256.977,85.948,256.562,85.876,256.144,85.813
		z"/>
	<path style="fill:#48BBEE;" d="M247.832,84.779c0.431,0.042,0.861,0.088,1.291,0.134C248.693,84.867,248.263,84.822,247.832,84.779
		z"/>
	<path style="fill:#0E94D7;" d="M173.565,312.574c-2.544-0.037-5.049-0.469-7.422-1.284c-2.943-1.009-5.672-2.598-8.037-4.672
		c-0.138-0.12-0.276-0.24-0.411-0.363c-0.218-0.2-0.431-0.406-0.642-0.614c-0.19-0.188-0.377-0.379-0.562-0.574
		c-0.171-0.181-0.341-0.362-0.507-0.548c-0.225-0.253-0.443-0.515-0.658-0.779c-0.123-0.151-0.249-0.297-0.369-0.452
		c-0.333-0.429-0.656-0.869-0.962-1.325l-3.88-5.779c-5.557-8.273-7.725-18.156-6.413-27.721c0.011-0.078,0.015-0.156,0.026-0.234
		c0.067-0.466,0.163-0.929,0.247-1.394c0.074-0.411,0.132-0.823,0.219-1.232c0.042-0.198,0.101-0.392,0.146-0.59
		c0.152-0.667,0.305-1.333,0.492-1.993c0.001-0.005,0.003-0.01,0.005-0.015c0.003-0.011,0.008-0.022,0.011-0.034
		c0.029-0.103,0.068-0.203,0.098-0.306c0.469-1.602,1.03-3.184,1.705-4.734c0.036-0.083,0.081-0.164,0.117-0.247
		c0.328-0.739,0.671-1.473,1.046-2.197l8.172-15.763l-0.12-5.497c-0.188-8.498,5.229-15.844,13.161-18.258l-7.245-2.016
		c-5.521-1.537-9.432-6.412-9.74-12.133l-0.385-7.128c-0.38-7.086,4.849-13.224,11.906-13.971l7.104-0.755v-12.604
		c0-0.836,0.391-1.625,1.063-2.127l21.203-16.003c1.448-1.091,2.635-2.44,3.531-4.013l3.651-6.367l-23.703,4.651
		c-0.781,0.148-1.594-0.052-2.208-0.557c-0.62-0.508-0.974-1.263-0.974-2.06v-7.31c0-7.292,3.255-14.099,8.938-18.68l33.396-26.935
		c0.854-0.69,2.047-0.784,3.005-0.234l23.38,13.466c0.625,0.359,1.349,0.445,2.052,0.258c0.693-0.195,1.271-0.651,1.615-1.284
		l8.925-14.539h0l0.011-0.018c24.21,3.417,46.671,12.256,66.128,25.24c0.013,0,0.026-0.001,0.039-0.002
		c-11.081-7.398-23.136-13.452-35.933-17.927c-0.049-0.017-0.097-0.034-0.146-0.051c-0.861-0.3-1.725-0.593-2.592-0.878
		c-0.127-0.042-0.255-0.082-0.382-0.124c-2.478-0.809-4.983-1.557-7.512-2.247c-0.344-0.094-0.688-0.188-1.034-0.28
		c-0.7-0.186-1.401-0.367-2.105-0.544c-0.424-0.106-0.85-0.208-1.276-0.311c-1.023-0.248-2.049-0.485-3.08-0.713
		c-0.626-0.139-1.252-0.279-1.881-0.41c-0.572-0.119-1.147-0.23-1.721-0.344c-0.6-0.118-1.201-0.234-1.804-0.346
		c-0.547-0.101-1.095-0.201-1.644-0.297c-0.736-0.128-1.475-0.249-2.214-0.367c-0.417-0.067-0.833-0.138-1.251-0.201
		c-1.105-0.167-2.215-0.321-3.327-0.466c-0.436-0.057-0.873-0.108-1.31-0.161c-0.793-0.096-1.588-0.188-2.384-0.272
		c-0.43-0.046-0.86-0.092-1.291-0.134c-1.02-0.1-2.042-0.191-3.068-0.272c-0.179-0.014-0.356-0.032-0.535-0.045
		c-1.196-0.091-2.396-0.164-3.599-0.228c-0.366-0.02-0.734-0.035-1.101-0.052c-0.904-0.042-1.811-0.076-2.719-0.103
		c-0.368-0.011-0.736-0.023-1.105-0.031C234.473,84.019,233.239,84,232,84c-88.366,0-160,71.635-160,160s71.634,160,160,160
		c2.442,0,4.867-0.076,7.283-0.184C207.533,382.619,183.803,350.371,173.565,312.574z M147.453,142.63
		c1.547-2.513,4.828-3.302,7.339-1.752l8.526,5.234c1.938,1.19,2.906,3.479,2.417,5.7l-3.771,16.977
		c-0.552,2.487-2.76,4.177-5.203,4.177c-0.385,0-0.771-0.039-1.161-0.127c-2.875-0.638-4.688-3.487-4.052-6.362l2.948-13.266
		l-5.286-3.245C146.698,148.427,145.911,145.141,147.453,142.63z"/>
	<path style="fill:#00E389;" d="M312.688,177.282c-0.23,0.248-0.483,0.48-0.767,0.687
		C312.206,177.762,312.461,177.531,312.688,177.282z"/>
	<path style="fill:#00E389;" d="M292.249,276.293l-0.585,0.877c-3.957,5.933-10.617,9.497-17.748,9.497h-62.499
		c-7.133,0-13.794,3.565-17.75,9.5l-10.045,15.068l-5.48,0.978c-4.099,0.732-8.218,0.374-11.998-0.922
		c2.373,0.816,4.878,1.247,7.422,1.284c1.516,0.022,3.045-0.085,4.57-0.361l35.448-6.328l8.25,10.219
		c5.589,6.917,12.927,12.26,21.229,15.453l3.604,1.385v22.26c0,2.422,0.875,6.773,2.677,13.305
		c2.276,8.245,7.651,15.094,15.135,19.289c4.865,2.729,10.229,4.117,15.651,4.117c2.974,0,5.969-0.417,8.911-1.263
		c0.797-0.227,1.443-0.813,1.745-1.581l23.349-59.021l31.25-29.443c0.417-0.391,0.693-0.904,0.797-1.464l3.115-17.167
		c0.146-0.81-0.089-1.641-0.635-2.255c-0.552-0.615-1.354-0.919-2.172-0.883l-7.573,0.518c-4.927,0.341-9.599-1.258-13.224-4.276
		l-23.002-3.419C298.607,271.054,294.54,272.858,292.249,276.293z"/>
	<path style="fill:#00E389;" d="M276.591,185.13c1.124,0,2.217-0.358,3.126-1.018c-0.909,0.658-2.005,1.018-3.129,1.018H276.591z"/>
	<path style="fill:#00E389;" d="M368.075,206.248l3.395,12.691l-33.178-10.544l51.38,16.328c0.375,0.114,0.762,0.107,1.139,0.06
		c-2.382-19.889-8.417-38.652-17.404-55.608l-5.016,16.665C366.392,192.482,366.283,199.549,368.075,206.248z"/>
	<path style="fill:#00E389;" d="M358.913,146.619c0,0,0.001,0.001,0.001,0.001C358.914,146.62,358.914,146.619,358.913,146.619z"/>
	<path style="fill:#00E389;" d="M364.373,154.176c0.135,0.199,0.27,0.398,0.405,0.598
		C364.643,154.574,364.509,154.375,364.373,154.176z"/>
	<path style="fill:#00E389;" d="M369.451,162.145c0.223,0.373,0.444,0.748,0.663,1.123
		C369.894,162.893,369.673,162.519,369.451,162.145z"/>
	<path style="fill:#00E389;" d="M239.387,223.076l-13.694-9.066l18.031,11.938l29.568-9.885l-24.634,8.236
		C245.543,225.34,242.124,224.889,239.387,223.076z"/>
	<path style="fill:#00E389;" d="M254.54,85.631c0.092,0.013,0.187,0.018,0.279,0.031c8.728,1.247,17.227,3.199,25.44,5.795
		c0.595,0.188,1.17,0.42,1.762,0.615c3.367,1.108,6.693,2.307,9.957,3.628c1.09,0.441,2.151,0.934,3.229,1.398
		c2.729,1.176,5.431,2.403,8.079,3.724c1.221,0.609,2.42,1.252,3.623,1.891c2.457,1.305,4.879,2.666,7.257,4.093
		c1.213,0.728,2.417,1.468,3.608,2.227c0.921,0.587,1.802,1.228,2.71,1.833c-65.225,3.019-120.249,45.078-142.232,103.351
		l1.301-0.247l7.368-5.502c1.578-1.178,2.799-2.771,3.528-4.601l4.641-11.657c4.182-3.872,10.302-4.659,15.292-2.023l14.516,12.87
		c0.828,0.737,2.031,0.88,3.01,0.365c0.984-0.516,1.542-1.586,1.406-2.685l-1.505-11.873c0.073-1.568,1.281-2.185,1.646-2.336
		c0.365-0.154,1.656-0.568,2.818,0.498l17.484,16.002c0.692,0.633,1.665,0.857,2.564,0.591l26.029-7.723L264,200.153l-1.353-2.407
		c-2.336-4.154-1.524-9.367,1.963-12.616h-2.833c-2.948,0-5.333-2.388-5.333-5.333s2.385-5.333,5.333-5.333h13.057l6.885-5.094
		c2.37-1.753,5.719-1.248,7.458,1.117c1.475,1.992,1.339,4.658-0.144,6.502l6.966-2.322h6.917l1.557,2.135l-13.651-18.724
		c-1.74-2.38-1.214-5.719,1.167-7.453c2.38-1.737,5.714-1.208,7.448,1.167l13.651,18.724c0.909,1.243,1.185,2.744,0.916,4.145
		l10.61-2.925c5.572-1.536,10.283-5.268,13.054-10.34l13.291-24.334c-8.944-9.945-19.118-18.759-30.281-26.209
		c-19.456-12.985-41.917-21.823-66.128-25.24L254.54,85.631z"/>
	<path style="fill:#00BBBB;" d="M149.208,149.966l5.286,3.245l-2.948,13.266c-0.635,2.875,1.177,5.724,4.052,6.362
		c0.391,0.088,0.776,0.127,1.161,0.127c2.443,0,4.651-1.69,5.203-4.177l3.771-16.977c0.49-2.221-0.479-4.51-2.417-5.7l-8.526-5.234
		c-2.51-1.55-5.792-0.76-7.339,1.752C145.911,145.141,146.698,148.427,149.208,149.966z"/>
	<path style="fill:#00BBBB;" d="M178.251,214.219c21.983-58.273,77.007-100.333,142.232-103.351
		c-0.908-0.605-1.789-1.246-2.71-1.833c-1.192-0.759-2.396-1.499-3.608-2.227c-2.378-1.427-4.8-2.788-7.257-4.093
		c-1.202-0.639-2.402-1.282-3.623-1.891c-2.648-1.321-5.349-2.548-8.079-3.724c-1.077-0.465-2.139-0.957-3.229-1.398
		c-3.264-1.321-6.59-2.52-9.957-3.628c-0.592-0.195-1.167-0.427-1.762-0.615c-8.213-2.596-16.712-4.548-25.44-5.795
		c-0.092-0.013-0.187-0.018-0.279-0.031h0l-8.925,14.539c-0.344,0.633-0.922,1.089-1.615,1.284
		c-0.703,0.188-1.427,0.102-2.052-0.258l-23.38-13.466c-0.958-0.55-2.151-0.456-3.005,0.234l-33.396,26.935
		c-5.682,4.581-8.938,11.388-8.938,18.68v7.31c0,0.797,0.354,1.552,0.974,2.06c0.615,0.505,1.427,0.706,2.208,0.557l23.703-4.651
		l-3.651,6.367c-0.896,1.573-2.083,2.922-3.531,4.013l-21.203,16.003c-0.672,0.502-1.063,1.292-1.063,2.127v12.604l-7.104,0.755
		c-7.057,0.748-12.286,6.885-11.906,13.971l0.385,7.128c0.307,5.721,4.219,10.596,9.74,12.133l7.245,2.016L178.251,214.219z"/>
	<path style="fill:#00BBBB;" d="M144.193,265.604c0.042-0.198,0.101-0.392,0.146-0.59
		C144.293,265.212,144.235,265.406,144.193,265.604z"/>
	<path style="fill:#00BBBB;" d="M146.649,257.933c0.036-0.083,0.081-0.164,0.117-0.247
		C146.729,257.769,146.685,257.85,146.649,257.933z"/>
	<path style="fill:#00BBBB;" d="M143.727,268.23c0.067-0.466,0.163-0.929,0.247-1.394
		C143.891,267.301,143.794,267.763,143.727,268.23z"/>
	<path style="fill:#00BBBB;" d="M144.835,263.006c0.003-0.011,0.008-0.022,0.011-0.034
		C144.843,262.984,144.838,262.995,144.835,263.006z"/>
	<path style="fill:#00BBBB;" d="M146.302,289.037c-0.938-2.292-1.64-4.656-2.136-7.056c-0.068-0.331-0.136-0.661-0.196-0.993
		c-0.274-1.523-0.464-3.058-0.561-4.6c-0.06-0.958-0.093-1.918-0.083-2.878c0.01-1.098,0.082-2.194,0.183-3.29
		c0.054-0.586,0.112-1.173,0.192-1.757c-1.312,9.565,0.856,19.448,6.413,27.721c-0.509-0.758-0.99-1.529-1.442-2.313
		C147.769,292.305,146.978,290.689,146.302,289.037z"/>
	<path style="fill:#FFEDB9;" d="M324.615,171.736l-10.61,2.925l-0.021,0.006c-0.186,0.957-0.615,1.87-1.295,2.615
		c-0.227,0.249-0.483,0.479-0.767,0.687c-0.948,0.69-2.047,1.023-3.135,1.023c-1.646,0-3.271-0.76-4.313-2.19l-1.557-2.135H296
		l-6.966,2.322l-0.149,0.05c-0.263,0.312-0.479,0.656-0.822,0.91l-8.302,6.138c-0.014,0.01-0.029,0.017-0.043,0.027
		c-0.909,0.659-2.002,1.018-3.126,1.018h-0.003h-11.979c-3.487,3.249-4.298,8.462-1.963,12.616l1.353,2.407l14.349-4.258
		c1.859,2.115,2.911,4.852,2.927,7.701c0.01,3.328-1.396,6.516-3.865,8.745l-4.12,3.721l-29.568,9.885l-18.031-11.938
		c-4.849-3.208-10.443-4.878-16.156-4.878c-1.708,0-3.427,0.151-5.135,0.453l-24.849,4.385l-1.301,0.247l-9.225,1.753l9.268-1.761
		C171.666,231.771,168,250.785,168,270.667c0,14.493,1.969,28.516,5.582,41.865c-5.714-0.082-11.202-2.184-15.476-5.913
		c2.365,2.074,5.094,3.663,8.037,4.672c3.781,1.296,7.9,1.654,11.998,0.922l5.48-0.978l10.045-15.068
		c3.957-5.935,10.617-9.5,17.75-9.5h62.499c7.132,0,13.791-3.563,17.748-9.497l0.585-0.877c2.291-3.435,6.358-5.239,10.442-4.632
		l23.002,3.419l-40.359-52.414l9.678,3.226c4.117,1.372,7.717,3.967,10.32,7.439l24.692,32.922c1.81,2.413,5.258,2.846,7.609,0.956
		l15.258-12.27c4.75-3.518,7.552-9.079,7.552-14.99v-0.01v-14.49c0-0.857-0.411-1.661-1.104-2.161
		c-0.698-0.508-1.583-0.643-2.401-0.37l-5.932,1.964c-2.167,0.716-4.458,0.495-6.448-0.63c-1.99-1.128-3.365-2.974-3.87-5.206
		l-2.396-10.651l33.178,10.544l-3.395-12.691c-1.792-6.7-1.683-13.766,0.316-20.407l5.016-16.665l0.008-0.026
		c-1.055-1.989-2.165-3.944-3.3-5.883c-0.22-0.375-0.441-0.75-0.663-1.123c-1.492-2.502-3.051-4.96-4.673-7.371
		c-0.134-0.2-0.27-0.399-0.405-0.598c-1.748-2.573-3.568-5.092-5.459-7.555c0,0-0.001-0.001-0.001-0.001
		c-2.528-3.293-5.168-6.496-7.941-9.579l-0.012,0.022l-13.291,24.334C334.898,166.469,330.187,170.2,324.615,171.736z"/>
	<path style="fill:#FFEDB9;" d="M155.984,304.519c0.166,0.187,0.336,0.367,0.507,0.548
		C156.32,304.887,156.15,304.705,155.984,304.519z"/>
	<path style="fill:#FFEDB9;" d="M154.957,303.288c0.12,0.154,0.246,0.301,0.369,0.452
		C155.203,303.589,155.077,303.442,154.957,303.288z"/>
	<path style="fill:#FFEDB9;" d="M157.052,305.641c0.211,0.209,0.424,0.414,0.642,0.614
		C157.476,306.055,157.263,305.849,157.052,305.641z"/>
	<path style="fill:#FFEDB9;" d="M143.327,273.51c0.01-1.098,0.082-2.194,0.183-3.29C143.409,271.316,143.337,272.412,143.327,273.51
		z"/>
	<path style="fill:#FFEDB9;" d="M144.943,262.667c-0.03,0.103-0.069,0.203-0.098,0.306c-0.003,0.011-0.008,0.022-0.011,0.034
		c-0.001,0.005-0.003,0.01-0.005,0.015C144.864,262.902,144.909,262.785,144.943,262.667z"/>
	<path style="fill:#FFEDB9;" d="M143.41,276.388c0.096,1.542,0.286,3.077,0.561,4.6C143.696,279.466,143.506,277.93,143.41,276.388z
		"/>
	<path style="fill:#FFEDB9;" d="M144.167,281.982c0.495,2.4,1.198,4.764,2.136,7.056
		C145.364,286.746,144.662,284.382,144.167,281.982z"/>
	<path style="fill:#FFEDB9;" d="M146.302,289.037c0.676,1.652,1.466,3.267,2.371,4.834
		C147.769,292.305,146.978,290.689,146.302,289.037z"/>
	<path style="fill:#FFD586;" d="M173.582,312.531c-3.612-13.348-5.582-27.372-5.582-41.865c0-19.881,3.666-38.895,10.294-56.456
		l-9.268,1.761c-7.932,2.414-13.349,9.76-13.161,18.258l0.12,5.497l-8.172,15.763c-0.375,0.723-0.718,1.458-1.046,2.197
		c-0.037,0.083-0.081,0.164-0.117,0.247c-0.675,1.55-1.237,3.132-1.705,4.734c-0.035,0.119-0.08,0.235-0.113,0.354
		c-0.187,0.66-0.34,1.327-0.492,1.993c-0.045,0.197-0.104,0.392-0.146,0.59c-0.087,0.409-0.145,0.821-0.219,1.232
		c-0.083,0.464-0.18,0.927-0.247,1.394c-0.011,0.078-0.015,0.156-0.026,0.234c-0.08,0.584-0.138,1.17-0.192,1.757
		c-0.101,1.095-0.173,2.192-0.183,3.29c-0.009,0.96,0.023,1.92,0.083,2.878c0.096,1.542,0.286,3.077,0.561,4.6
		c0.06,0.332,0.128,0.662,0.196,0.993c0.495,2.4,1.198,4.764,2.136,7.056c0.676,1.652,1.466,3.267,2.371,4.834
		c0.452,0.784,0.933,1.555,1.442,2.313l3.88,5.779c0.306,0.456,0.629,0.896,0.962,1.325c0.12,0.154,0.246,0.301,0.369,0.452
		c0.215,0.264,0.433,0.526,0.658,0.779c0.166,0.186,0.336,0.368,0.507,0.548c0.185,0.195,0.371,0.386,0.562,0.574
		c0.211,0.208,0.424,0.415,0.642,0.614c0.135,0.124,0.273,0.243,0.411,0.363C162.379,310.347,167.868,312.449,173.582,312.531z"/>
	<path style="fill:#FFEDB9;" d="M488,244c0-9.678-4.302-18.346-11.092-24.214c0.371,0.321,0.735,0.65,1.091,0.988
		c-1.268-0.153-2.557-0.241-3.866-0.241c-17.673,0-32,14.327-32,32c0,9.149,3.845,17.394,10,23.226
		c-4.453-0.537-8.624-1.987-12.321-4.159c1.904,1.119,3.934,2.045,6.063,2.755C449.059,275.417,452.46,276,456,276
		c1.966,0,3.887-0.187,5.754-0.526C476.679,272.762,488,259.707,488,244z"/>
	<path style="fill:#FFEDB9;" d="M424.754,250.899c-0.049-0.225-0.099-0.449-0.144-0.675
		C424.654,250.45,424.704,250.674,424.754,250.899z"/>
	<path style="fill:#FFEDB9;" d="M426.63,256.712c-0.1-0.229-0.194-0.462-0.289-0.694C426.436,256.25,426.531,256.482,426.63,256.712
		z"/>
	<path style="fill:#FFEDB9;" d="M426.062,255.309c-0.087-0.229-0.17-0.46-0.251-0.691
		C425.893,254.849,425.976,255.08,426.062,255.309z"/>
	<path style="fill:#FFEDB9;" d="M425.122,252.403c-0.062-0.228-0.123-0.455-0.18-0.685C425,251.948,425.061,252.175,425.122,252.403
		z"/>
	<path style="fill:#FFEDB9;" d="M425.559,253.872c-0.074-0.229-0.146-0.458-0.215-0.689
		C425.413,253.414,425.485,253.644,425.559,253.872z"/>
	<path style="fill:#FFEDB9;" d="M427.262,258.081c-0.114-0.231-0.221-0.467-0.329-0.701
		C427.04,257.614,427.148,257.849,427.262,258.081z"/>
	<path style="fill:#FFEDB9;" d="M439.796,271.591c-0.383-0.225-0.76-0.459-1.132-0.7
		C439.037,271.132,439.414,271.366,439.796,271.591z"/>
	<path style="fill:#FFEDB9;" d="M431.983,265.135c-0.266-0.301-0.528-0.605-0.783-0.916
		C431.454,264.53,431.717,264.833,431.983,265.135z"/>
	<path style="fill:#FFEDB9;" d="M437.327,269.979c-0.323-0.233-0.642-0.471-0.956-0.716
		C436.686,269.508,437.004,269.747,437.327,269.979z"/>
	<path style="fill:#FFEDB9;" d="M432.93,266.163c-0.264-0.274-0.525-0.551-0.779-0.834
		C432.404,265.612,432.666,265.888,432.93,266.163z"/>
	<path style="fill:#FFEDB9;" d="M431.193,264.209c-0.823-1.008-1.581-2.071-2.278-3.176
		C429.612,262.139,430.37,263.201,431.193,264.209z"/>
	<path style="fill:#FFEDB9;" d="M428.706,260.708c-0.156-0.253-0.302-0.513-0.451-0.771
		C428.404,260.195,428.55,260.454,428.706,260.708z"/>
	<path style="fill:#FFEDB9;" d="M427.954,259.414c-0.131-0.238-0.255-0.481-0.381-0.723
		C427.699,258.933,427.823,259.176,427.954,259.414z"/>
	<path style="fill:#FFEDB9;" d="M436.155,269.094c-0.302-0.239-0.601-0.484-0.894-0.734
		C435.554,268.61,435.852,268.854,436.155,269.094z"/>
	<path style="fill:#FFEDB9;" d="M438.541,270.813c-0.349-0.228-0.693-0.463-1.032-0.704
		C437.849,270.35,438.192,270.585,438.541,270.813z"/>
	<path style="fill:#FFEDB9;" d="M468.141,214.39c0.362,0.149,0.719,0.306,1.073,0.467
		C468.859,214.697,468.502,214.539,468.141,214.39z"/>
	<path style="fill:#FFEDB9;" d="M472.136,216.37c0.383,0.224,0.76,0.456,1.133,0.696
		C472.896,216.827,472.519,216.594,472.136,216.37z"/>
	<path style="fill:#FFEDB9;" d="M470.843,215.652c0.378,0.199,0.751,0.405,1.121,0.619
		C471.594,216.058,471.221,215.851,470.843,215.652z"/>
	<path style="fill:#FFEDB9;" d="M424.456,249.361c-0.037-0.219-0.076-0.438-0.109-0.658
		C424.379,248.923,424.419,249.142,424.456,249.361z"/>
	<path style="fill:#FFEDB9;" d="M433.952,267.18c-0.273-0.259-0.542-0.521-0.806-0.79
		C433.409,266.659,433.679,266.92,433.952,267.18z"/>
	<path style="fill:#FFEDB9;" d="M473.39,217.144c0.385,0.25,0.764,0.507,1.136,0.773
		C474.154,217.652,473.775,217.394,473.39,217.144z"/>
	<path style="fill:#FFEDB9;" d="M474.604,217.972c0.384,0.275,0.761,0.558,1.132,0.849
		C475.365,218.53,474.988,218.247,474.604,217.972z"/>
	<path style="fill:#FFEDB9;" d="M435.029,268.159c-0.286-0.248-0.568-0.5-0.845-0.758
		C434.46,267.659,434.743,267.91,435.029,268.159z"/>
	<path style="fill:#FFEDB9;" d="M475.776,218.853c0.38,0.299,0.752,0.606,1.118,0.922
		C476.529,219.459,476.156,219.152,475.776,218.853z"/>
	<path style="fill:#FFEDB9;" d="M469.511,214.992c0.371,0.173,0.737,0.354,1.1,0.542
		C470.248,215.347,469.882,215.165,469.511,214.992z"/>
	<path style="fill:#FFEDB9;" d="M424.077,246.114c-0.011-0.176-0.028-0.349-0.037-0.525
		C424.049,245.765,424.065,245.938,424.077,246.114z"/>
	<path style="fill:#FFEDB9;" d="M424.229,247.778c-0.024-0.207-0.053-0.413-0.073-0.622
		C424.177,247.365,424.205,247.571,424.229,247.778z"/>
	<path style="fill:#FFEDB9;" d="M466.735,213.851c0.35,0.125,0.696,0.259,1.04,0.395
		C467.431,214.11,467.085,213.976,466.735,213.851z"/>
	<path style="fill:#FFEDB9;" d="M462.312,212.626c0.301,0.06,0.599,0.131,0.897,0.2
		C462.911,212.757,462.614,212.686,462.312,212.626z"/>
	<path style="fill:#FFEDB9;" d="M463.819,212.966c0.321,0.081,0.638,0.171,0.955,0.262
		C464.457,213.138,464.14,213.047,463.819,212.966z"/>
	<path style="fill:#FFEDB9;" d="M465.293,213.375c0.336,0.102,0.669,0.214,1.001,0.326
		C465.962,213.589,465.63,213.478,465.293,213.375z"/>
	<path style="fill:#FFEDB9;" d="M461.609,212.5c-0.278-0.049-0.555-0.102-0.835-0.144
		C461.055,212.398,461.331,212.451,461.609,212.5z"/>
	<path style="fill:#FFEDB9;" d="M459.957,212.252c-0.249-0.031-0.497-0.067-0.748-0.092
		C459.46,212.185,459.708,212.221,459.957,212.252z"/>
	<path style="fill:#FFEDB9;" d="M458.212,212.084c-0.199-0.013-0.396-0.034-0.595-0.044
		C457.816,212.051,458.013,212.071,458.212,212.084z"/>
	<path style="fill:#FFD586;" d="M452.133,275.759c-6.155-5.832-10-14.077-10-23.226c0-17.673,14.327-32,32-32
		c1.31,0,2.598,0.088,3.866,0.241c-0.356-0.338-0.72-0.667-1.091-0.988c-0.005-0.004-0.009-0.008-0.014-0.012
		c-0.365-0.316-0.738-0.623-1.118-0.922c-0.013-0.011-0.027-0.021-0.04-0.032c-0.371-0.291-0.748-0.574-1.132-0.849
		c-0.026-0.018-0.051-0.037-0.077-0.055c-0.373-0.266-0.752-0.523-1.136-0.773c-0.04-0.026-0.081-0.052-0.122-0.078
		c-0.372-0.24-0.75-0.471-1.133-0.696c-0.057-0.034-0.115-0.066-0.173-0.099c-0.369-0.213-0.742-0.42-1.121-0.619
		c-0.077-0.04-0.155-0.079-0.232-0.119c-0.363-0.187-0.729-0.368-1.1-0.542c-0.098-0.046-0.198-0.089-0.297-0.134
		c-0.355-0.161-0.712-0.319-1.073-0.467c-0.121-0.05-0.244-0.096-0.365-0.144c-0.344-0.136-0.69-0.27-1.04-0.395
		c-0.146-0.052-0.294-0.099-0.441-0.149c-0.332-0.113-0.664-0.224-1.001-0.326c-0.172-0.052-0.346-0.098-0.519-0.147
		c-0.317-0.09-0.634-0.181-0.955-0.262c-0.202-0.051-0.407-0.094-0.61-0.141c-0.298-0.069-0.596-0.139-0.897-0.2
		c-0.215-0.043-0.432-0.077-0.648-0.116c-0.018-0.003-0.037-0.006-0.055-0.009c-0.278-0.049-0.555-0.102-0.835-0.144
		c-0.27-0.041-0.544-0.07-0.817-0.104c-0.249-0.031-0.497-0.067-0.748-0.092c-0.33-0.033-0.664-0.053-0.997-0.076
		c-0.199-0.013-0.395-0.034-0.595-0.044C457.081,212.014,456.542,212,456,212c-3.514,0-6.892,0.574-10.055,1.621
		C433.2,217.838,424,229.841,424,244c0,0.533,0.014,1.062,0.04,1.589c0.009,0.176,0.026,0.35,0.037,0.525
		c0.023,0.349,0.045,0.697,0.079,1.042c0.02,0.208,0.049,0.415,0.073,0.622c0.036,0.309,0.072,0.618,0.117,0.924
		c0.033,0.221,0.072,0.439,0.109,0.658c0.049,0.289,0.098,0.577,0.154,0.863c0.045,0.226,0.095,0.451,0.144,0.675
		c0.06,0.274,0.122,0.548,0.189,0.819c0.057,0.229,0.118,0.457,0.18,0.685c0.071,0.261,0.144,0.522,0.222,0.78
		c0.069,0.231,0.141,0.461,0.215,0.689c0.081,0.25,0.165,0.498,0.252,0.745c0.081,0.231,0.164,0.462,0.251,0.691
		c0.09,0.238,0.184,0.473,0.279,0.708c0.094,0.232,0.189,0.465,0.289,0.694c0.097,0.225,0.2,0.446,0.302,0.668
		c0.108,0.235,0.216,0.47,0.329,0.701c0.101,0.205,0.207,0.407,0.312,0.61c0.125,0.242,0.249,0.485,0.381,0.723
		c0.097,0.176,0.2,0.349,0.3,0.523c0.149,0.258,0.295,0.518,0.451,0.771c0.068,0.11,0.14,0.217,0.209,0.326
		c0.697,1.105,1.455,2.168,2.278,3.176c0.003,0.003,0.005,0.006,0.007,0.01c0.254,0.311,0.517,0.615,0.783,0.916
		c0.056,0.064,0.111,0.13,0.168,0.194c0.254,0.283,0.515,0.56,0.779,0.834c0.073,0.075,0.143,0.153,0.217,0.227
		c0.263,0.268,0.533,0.531,0.806,0.79c0.077,0.073,0.154,0.148,0.232,0.221c0.277,0.258,0.559,0.51,0.845,0.758
		c0.077,0.067,0.154,0.135,0.232,0.201c0.293,0.25,0.592,0.494,0.894,0.734c0.072,0.057,0.144,0.114,0.217,0.17
		c0.314,0.244,0.632,0.483,0.956,0.716c0.06,0.043,0.121,0.086,0.182,0.129c0.339,0.241,0.683,0.476,1.032,0.704
		c0.041,0.027,0.082,0.052,0.123,0.079c0.372,0.24,0.749,0.475,1.132,0.7c0.005,0.003,0.01,0.006,0.016,0.009
		C443.509,273.772,447.68,275.222,452.133,275.759z"/>
</g>
<g>
</g>
<g>
</g>
<g>
</g>
<g>
</g>
<g>
</g>
<g>
</g>
<g>
</g>
<g>
</g>
<g>
</g>
<g>
</g>
<g>
</g>
<g>
</g>
<g>
</g>
<g>
</g>
<g>
</g>
</svg>
