<?xml version="1.0" encoding="iso-8859-1"?>
<!-- Generator: Adobe Illustrator 19.0.0, SVG Export Plug-In . SVG Version: 6.00 Build 0)  -->
<svg version="1.1" id="Capa_1" xmlns="http://www.w3.org/2000/svg" xmlns:xlink="http://www.w3.org/1999/xlink" x="0px" y="0px"
	 viewBox="0 0 512.032 512.032" style="enable-background:new 0 0 512.032 512.032;" xml:space="preserve">
<g>
	<polygon style="fill:none;" points="415.379,45.385 256.934,93.607 312.012,148.685 	"/>
	<polygon style="fill:none;" points="236.766,464.032 154.183,381.449 166.888,464.032 	"/>
	<path style="fill:none;" d="M439.985,67.454l-48.344,158.844c-0.153,0.502-0.363,0.969-0.6,1.416l48.944,48.943V67.454z"/>
	<path style="fill:none;" d="M245.657,80.318L404.513,31.97H195.297l48.937,48.937C244.681,80.67,245.155,80.47,245.657,80.318z"/>
	<polygon style="fill:none;" points="426.455,56.942 323.328,160.001 378.345,215.017 	"/>
	<path style="fill:#888693;" d="M448.016,48c-13.255,0-24-10.745-24-24c0-2.817,0.49-5.519,1.381-8.03h-246.1l16,16h209.216
		L245.657,80.318c-0.502,0.153-0.975,0.353-1.422,0.59l12.7,12.7l158.445-48.222l-103.367,103.3l5.342,5.342l-0.016,0.016
		l5.974,5.974l0.016-0.016L426.455,56.942l-48.11,158.075l12.696,12.697c0.237-0.447,0.447-0.914,0.6-1.416l48.344-158.844v209.203
		l16,16V46.64C453.491,47.518,450.81,48,448.016,48z"/>
	<path style="fill:#888693;" d="M178.329,317.626l-6.297-6.296l-0.006,0.006l-11.312-11.313l0.005-0.005l-6.389-6.388
		c-1.5-1.5-2.344-3.535-2.344-5.656v-3.316l-27.507,27.507c1.152-0.125,2.321-0.195,3.507-0.195c17.673,0,32,14.327,32,32
		c0,1.186-0.069,2.356-0.195,3.509l27.508-27.508h-3.313C181.86,319.97,179.829,319.126,178.329,317.626z"/>
	<path style="fill:#B6B8BE;" d="M391.041,227.714l-12.696-12.697l-55.016-55.016l-0.016,0.016l0.016,0.016L172.031,311.33
		l6.297,6.296c1.5,1.5,3.531,2.344,5.656,2.344h3.313h257.375c6.492,0,12.297-3.879,14.781-9.879s1.125-12.844-3.469-17.434l-16-16
		L391.041,227.714z"/>
	<path style="fill:#D5D9DE;" d="M154.329,293.63l6.389,6.388L312.016,148.72l5.323,5.323l0.016-0.016l-5.342-5.342l-55.078-55.078
		l-12.7-12.7L195.297,31.97l-16-16c-4.594-4.59-11.422-5.953-17.438-3.469c-6,2.484-9.875,8.285-9.875,14.781v257.375v3.316
		C151.985,290.095,152.829,292.13,154.329,293.63z"/>
	<path style="fill:#888693;" d="M154.183,381.449l-9.928-9.928c-4.768,2.822-10.328,4.447-16.271,4.447
		c-9.341,0-17.745-4.004-23.595-10.388c-0.119,0.38-0.218,0.77-0.28,1.174l-14.966,97.277h77.744L154.183,381.449z"/>
	<path style="fill:#B6B8BE;" d="M127.985,311.969c-1.186,0-2.354,0.07-3.507,0.195c-16.023,1.747-28.493,15.318-28.493,31.805
		c0,8.332,3.187,15.918,8.405,21.612c5.85,6.383,14.254,10.388,23.595,10.388c5.942,0,11.502-1.625,16.271-4.447l-21.896-21.896
		c-3.125-3.125-3.125-8.188,0-11.313s8.188-3.125,11.313,0l21.887,21.887c2.246-3.807,3.727-8.117,4.23-12.723
		c0.126-1.153,0.195-2.323,0.195-3.509C159.985,326.296,145.658,311.969,127.985,311.969z"/>
	<path style="fill:#B6B8BE;" d="M261.672,477.626c-1.563,1.563-3.609,2.344-5.656,2.344s-4.094-0.781-5.656-2.344l-13.594-13.594
		h-69.878H89.144H64.016c-13.234,0-24,10.766-24,24v16c0,4.418,3.578,8,8,8h280c4.422,0,8-3.582,8-8v-16c0-13.234-10.766-24-24-24
		h-52.625l2.281,2.281C264.797,469.438,264.797,474.501,261.672,477.626z"/>
	<path style="fill:#5C546A;" d="M122.36,338.313c-3.125,3.125-3.125,8.188,0,11.313l21.896,21.896l9.928,9.928l82.583,82.583
		l13.594,13.594c1.563,1.563,3.609,2.344,5.656,2.344s4.094-0.781,5.656-2.344c3.125-3.125,3.125-8.188,0-11.313l-2.281-2.281
		L155.56,360.201l-21.887-21.887C130.547,335.188,125.485,335.188,122.36,338.313z"/>
	<path style="fill:#D5D9DE;" d="M448.016,48c2.794,0,5.475-0.482,7.969-1.36c9.337-3.287,16.031-12.179,16.031-22.64
		c0-13.255-10.745-24-24-24c-10.438,0-19.315,6.665-22.619,15.97c-0.892,2.511-1.381,5.213-1.381,8.03
		C424.016,37.255,434.761,48,448.016,48z"/>
	<polygon style="fill:#5C546A;" points="160.718,300.018 160.713,300.023 172.025,311.336 172.031,311.33 323.329,160.032 
		323.313,160.017 317.339,154.042 312.016,148.72 	"/>
</g>
<g>
</g>
<g>
</g>
<g>
</g>
<g>
</g>
<g>
</g>
<g>
</g>
<g>
</g>
<g>
</g>
<g>
</g>
<g>
</g>
<g>
</g>
<g>
</g>
<g>
</g>
<g>
</g>
<g>
</g>
</svg>
