<?xml version="1.0" encoding="iso-8859-1"?>
<!-- Generator: Adobe Illustrator 19.0.0, SVG Export Plug-In . SVG Version: 6.00 Build 0)  -->
<svg version="1.1" id="Capa_1" xmlns="http://www.w3.org/2000/svg" xmlns:xlink="http://www.w3.org/1999/xlink" x="0px" y="0px"
	 viewBox="0 0 512 512" style="enable-background:new 0 0 512 512;" xml:space="preserve">
<g>
	<path style="fill:#5C546A;" d="M264,445.93V352V232c0-4.418-3.582-8-8-8c-4.418,0-8,3.582-8,8v120v93.93h-25.391
		c-2.293,0-4.509-0.322-6.609-0.915v24.915c0,4.422,3.578,8,8,8h24V504c0,4.418,3.582,8,8,8c4.418,0,8-3.582,8-8v-26.07h24
		c4.422,0,8-3.578,8-8v-24.915c-2.101,0.593-4.317,0.915-6.609,0.915H264z"/>
	<path style="fill:#5C546A;" d="M439.89,500.617l-20.148-120.914c-2.727-16.359-9.43-32.023-19.391-45.297L320,227.269V349.93
		l-6.13,67.747L427,508.179c1.453,1.156,3.227,1.75,5,1.75c1.391,0,2.789-0.359,4.047-1.102
		C438.906,507.148,440.437,503.883,439.89,500.617z"/>
	<path style="fill:#5C546A;" d="M192.153,352l-0.122-1.344l-0.017-123.407l-80.366,107.157
		c-9.961,13.273-16.664,28.937-19.391,45.297L72.109,500.617c-0.547,3.266,0.984,6.531,3.844,8.211
		c1.258,0.742,2.656,1.102,4.047,1.102c1.773,0,3.547-0.594,5-1.75l113.127-90.501L192.153,352L192.153,352z"/>
	<path style="fill:#FF4F19;" d="M275.484,10.055c0.538,0.755,1.089,1.534,1.649,2.337C276.573,11.59,276.023,10.809,275.484,10.055z
		"/>
	<path style="fill:#FF4F19;" d="M320,227.269V125.93c0-44.911-26.015-89.408-42.771-113.401
		c8.448,12.104,19.231,29.443,27.868,49.399H256V103c17.081,0,30.928,13.847,30.928,30.928c0,17.081-13.847,30.928-30.928,30.928
		V224c4.418,0,8,3.582,8,8v120h55.812l-6.523,72.102l0.581-6.425L320,349.93V227.269z"/>
	<polygon style="fill:#FF4F19;" points="192.153,352 192.153,352 192.031,350.656 	"/>
	<path style="fill:#E5001E;" d="M234.866,12.391c0.561-0.802,1.111-1.582,1.649-2.337C235.977,10.809,235.427,11.59,234.866,12.391z
		"/>
	<path style="fill:#E5001E;" d="M192.153,352H248V232c0-4.418,3.582-8,8-8v-59.143c-17.081,0-30.928-13.847-30.928-30.928
		C225.072,116.847,238.919,103,256,103V61.928h-49.097c8.636-19.956,19.419-37.295,27.868-49.399
		C218.015,36.521,192,81.019,192,125.93l0.014,101.32l0.017,123.407L192.153,352z"/>
	<path style="fill:#B6B8BE;" d="M319.813,352H264v93.93h25.391c2.293,0,4.509-0.322,6.609-0.915
		c9.344-2.638,16.364-10.752,17.289-20.913L319.813,352z"/>
	<path style="fill:#888693;" d="M248,445.93V352h-55.847l0,0l0,0l5.973,65.678l0.584,6.423c0.925,10.161,7.945,18.275,17.289,20.913
		c2.101,0.593,4.316,0.915,6.609,0.915H248z"/>
	<circle style="fill:#5C546A;" cx="256" cy="133.928" r="30.928"/>
	<path style="fill:#5C546A;" d="M256,61.928V0c-7.711,0-14.992,3.758-19.484,10.055c-0.539,0.755-1.089,1.534-1.649,2.337
		c-0.031,0.045-0.064,0.093-0.095,0.137c-8.448,12.104-19.231,29.443-27.868,49.399H256z"/>
	<path style="fill:#888693;" d="M305.097,61.928c-8.636-19.956-19.42-37.295-27.868-49.399c-0.031-0.045-0.064-0.093-0.095-0.137
		c-0.561-0.802-1.111-1.582-1.649-2.337C270.992,3.758,263.711,0,256,0v61.928H305.097z"/>
</g>
<g>
</g>
<g>
</g>
<g>
</g>
<g>
</g>
<g>
</g>
<g>
</g>
<g>
</g>
<g>
</g>
<g>
</g>
<g>
</g>
<g>
</g>
<g>
</g>
<g>
</g>
<g>
</g>
<g>
</g>
</svg>
