<?xml version="1.0" encoding="iso-8859-1"?>
<!-- Generator: Adobe Illustrator 19.0.0, SVG Export Plug-In . SVG Version: 6.00 Build 0)  -->
<svg version="1.1" id="Capa_1" xmlns="http://www.w3.org/2000/svg" xmlns:xlink="http://www.w3.org/1999/xlink" x="0px" y="0px"
	 viewBox="0 0 512 512" style="enable-background:new 0 0 512 512;" xml:space="preserve">
<g>
	<path style="fill:#D5D9DE;" d="M511.923,370.95c0.007,0.056,0.019,0.11,0.025,0.166
		C511.942,371.061,511.931,371.006,511.923,370.95z"/>
	<path style="fill:#D5D9DE;" d="M511.979,371.593c0.006,0.117,0.017,0.233,0.018,0.352
		C511.996,371.828,511.985,371.71,511.979,371.593z"/>
	<path style="fill:#D5D9DE;" d="M256,148c27.268,0,51.678,12.467,67.832,32h113.963c2.926,5.125,5.883,10.451,8.864,16H334.372
		c6.153,12.008,9.628,25.606,9.628,40c0,48.523-39.476,88-88,88v40h248h6.357c0.483,2.097,0.991,4.169,1.456,6.285
		C478.679,219.347,397.5,116.754,384,100H256V148z"/>
	<polygon style="fill:#D5D9DE;" points="511.814,370.299 511.812,370.285 511.813,370.291 	"/>
	<path style="fill:#B6B8BE;" d="M0.003,371.944c0.001-0.118,0.012-0.234,0.018-0.352C0.014,371.71,0.004,371.828,0.003,371.944z"/>
	<path style="fill:#B6B8BE;" d="M0.051,371.116c0.006-0.056,0.018-0.111,0.025-0.167C0.069,371.005,0.058,371.061,0.051,371.116z"/>
	<path style="fill:#B6B8BE;" d="M8,364h248v-40c-48.523,0-88-39.477-88-88c0-14.394,3.474-27.992,9.627-40H65.34
		c2.981-5.549,5.938-10.875,8.864-16h113.963c16.154-19.533,40.564-32,67.833-32v-48H128C114.5,116.754,33.32,219.347,0.188,370.285
		c0.464-2.116,0.973-4.188,1.456-6.285H8z"/>
	<polygon style="fill:#B6B8BE;" points="0.188,370.285 0.185,370.299 0.187,370.291 	"/>
	<path style="fill:#5C546A;" d="M0.247,388C0.107,386.96,0,385.911,0,384.844c0,10.008,6.313,19.059,15.703,22.52l122.781,45.238
		c13.328,4.91,27.289,7.398,41.492,7.398H256v-72H0.247z"/>
	<path style="fill:#5C546A;" d="M0.173,371.142c0.031-0.287-0.048-0.562,0.014-0.851c-0.001,0.003-0.002,0.006-0.002,0.008
		c-0.046,0.213-0.08,0.431-0.108,0.65c-0.007,0.056-0.019,0.111-0.025,0.167c-0.017,0.157-0.023,0.317-0.031,0.477
		c-0.006,0.117-0.017,0.233-0.018,0.352C0.003,371.963,0,371.981,0,372C0,371.696,0.14,371.437,0.173,371.142z"/>
	<path style="fill:#888693;" d="M256,52H152c-13.234,0-24,10.766-24,24v8h128V52z"/>
	<path style="fill:#B6B8BE;" d="M384,84v-8c0-13.234-10.766-24-24-24H256v32H384z"/>
	<path style="fill:#FFCF00;" d="M205.422,184.816C192.206,197.877,184,215.996,184,236c0,39.699,32.297,72,72,72
		c20.005,0,38.123-8.207,51.184-21.422L205.422,184.816z"/>
	<path style="fill:#FFEDB9;" d="M307.184,286.578C320.044,273.565,328,255.696,328,236c0-39.699-32.297-72-72-72
		c-19.698,0-37.566,7.957-50.578,20.816L307.184,286.578z"/>
	<path style="fill:#888693;" d="M256,308c-39.703,0-72-32.301-72-72c0-20.004,8.206-38.123,21.422-51.184
		C218.434,171.957,236.302,164,256,164v-16c-27.268,0-51.679,12.467-67.833,32H74.204c-2.926,5.125-5.883,10.451-8.864,16h112.288
		c-6.153,12.008-9.627,25.606-9.627,40c0,48.523,39.477,88,88,88V308z"/>
	<path style="fill:#888693;" d="M256,388v72h76.023c14.211,0,28.164-2.488,41.484-7.398l122.789-45.238
		c9.391-3.461,15.703-12.512,15.703-22.52c0,1.067-0.107,2.116-0.247,3.156H256z"/>
	<path style="fill:#888693;" d="M511.826,371.142C511.86,371.437,512,371.696,512,372c0-0.019-0.003-0.037-0.003-0.055
		c-0.001-0.118-0.012-0.234-0.018-0.352c-0.008-0.16-0.014-0.32-0.031-0.477c-0.006-0.056-0.018-0.11-0.025-0.166
		c-0.029-0.22-0.062-0.438-0.109-0.652c0-0.002-0.001-0.005-0.002-0.008C511.874,370.58,511.796,370.854,511.826,371.142z"/>
	<path style="fill:#B6B8BE;" d="M344,236c0-14.394-3.474-27.992-9.628-40H446.66c-2.981-5.549-5.938-10.875-8.864-16H323.832
		c-16.154-19.533-40.564-32-67.832-32v16c39.703,0,72,32.301,72,72c0,19.696-7.956,37.565-20.816,50.578
		C294.123,299.793,276.005,308,256,308v16C304.523,324,344,284.523,344,236z"/>
	<rect x="128" y="84" style="fill:#5C546A;" width="128" height="16"/>
	<rect x="256" y="84" style="fill:#888693;" width="128" height="16"/>
	<path style="fill:#FF9300;" d="M256,388v-16v-8H8H1.643c-0.483,2.097-0.991,4.169-1.456,6.285c0,0.002,0,0.004,0,0.006
		c-0.062,0.289,0.017,0.563-0.014,0.851C0.14,371.437,0,371.696,0,372v12.844c0,1.067,0.107,2.116,0.247,3.156H256z"/>
	<path style="fill:#FFCF00;" d="M511.826,371.142c-0.031-0.288,0.048-0.562-0.014-0.851c0-0.002,0-0.004,0-0.006
		c-0.464-2.116-0.973-4.188-1.456-6.285H504H256v8v16h255.753c0.14-1.04,0.247-2.089,0.247-3.156V372
		C512,371.696,511.86,371.437,511.826,371.142z"/>
</g>
<g>
</g>
<g>
</g>
<g>
</g>
<g>
</g>
<g>
</g>
<g>
</g>
<g>
</g>
<g>
</g>
<g>
</g>
<g>
</g>
<g>
</g>
<g>
</g>
<g>
</g>
<g>
</g>
<g>
</g>
</svg>
