<?xml version="1.0" encoding="iso-8859-1"?>
<!-- Generator: Adobe Illustrator 19.0.0, SVG Export Plug-In . SVG Version: 6.00 Build 0)  -->
<svg version="1.1" id="Capa_1" xmlns="http://www.w3.org/2000/svg" xmlns:xlink="http://www.w3.org/1999/xlink" x="0px" y="0px"
	 viewBox="0 0 512 512" style="enable-background:new 0 0 512 512;" xml:space="preserve">
<g>
	<path style="fill:#D5D9DE;" d="M199.601,367.889c0.224-4.249,3.734-7.579,7.989-7.579H208V124.996l-13.258,13.255
		C182.656,150.341,176,166.411,176,183.505v9.039c0,23.504-9.156,45.602-25.773,62.227l-65.141,65.137
		C71.484,333.509,64,351.587,64,370.817v29.492h133.895L199.601,367.889z"/>
	<path style="fill:#FF4F19;" d="M64,400v24c0,13.234,10.766,24,24,24h107.368l2.526-48H64z"/>
	<path style="fill:#D5D9DE;" d="M426.914,319.907l-65.141-65.137C345.156,238.146,336,216.048,336,192.544v-9.039
		c0-17.094-6.656-33.164-18.742-45.254L304,124.996V360.31h0.41h0c2.82,0,5.306,1.468,6.732,3.691
		c0.188,0.292,0.364,0.594,0.513,0.911c0.427,0.91,0.688,1.915,0.744,2.977l0.152,2.88l1.555,29.541H448v-29.492
		C448,351.587,440.515,333.509,426.914,319.907z"/>
	<path style="fill:#FF4F19;" d="M316.631,448H424c13.234,0,24-10.766,24-24v-24H314.105L316.631,448z"/>
	<path style="fill:#E3E6E9;" d="M224,360V128V72h0.152c-0.635-3.254,0.805-6.693,3.84-8.449c17.063-9.883,38.953-9.883,56.016,0
		c3.035,1.756,4.476,5.195,3.84,8.449H288v56v232h16V124.687V48c0-26.469-21.531-48-48-48c-26.469,0-48,21.531-48,48v76.687V360H224
		z"/>
	<path style="fill:#D5D9DE;" d="M288,72h-0.152c-0.166,0.851-0.466,1.689-0.926,2.48c-1.484,2.563-4.172,3.992-6.93,3.992
		c-1.359,0-2.742-0.348-4-1.078c-12.188-7.055-27.797-7.055-39.984,0c-3.805,2.223-8.711,0.914-10.93-2.914
		c-0.46-0.792-0.76-1.63-0.926-2.48H224v56v232h24v-40c0-4.418,3.582-8,8-8h0c4.418,0,8,3.582,8,8v40h24V128V72z"/>
	<path style="fill:#888693;" d="M248,359.996h-24h-16h-0.41c-4.255,0-7.765,3.33-7.989,7.579l-1.706,32.421l-2.526,48l-0.421,8H248
		V359.996z"/>
	<path style="fill:#888693;" d="M192.443,503.579l1.656-31.466L192.443,503.579c-0.071,1.344,0.201,2.62,0.725,3.758
		C192.644,506.199,192.372,504.923,192.443,503.579z"/>
	<path style="fill:#888693;" d="M311.142,363.691c0.188,0.292,0.364,0.594,0.513,0.911
		C311.505,364.285,311.329,363.984,311.142,363.691z"/>
	<path style="fill:#5C546A;" d="M248,472v-16h-53.053h0l-0.848,16.113l-1.656,31.466c-0.071,1.344,0.201,2.62,0.725,3.758
		c0.816,1.771,2.253,3.202,4.048,3.991c0.983,0.432,2.07,0.672,3.216,0.672H256v-32C251.581,480,248,476.418,248,472z"/>
	<path style="fill:#888693;" d="M264,456v16c0,4.418-3.582,8-8,8h0v32h0.432h55.136H312c4.583,0,8.23-3.843,7.989-8.42L317.485,456
		h-0.432H264z"/>
	<path style="fill:#B6B8BE;" d="M312.55,370.456l-0.152-2.88c-0.056-1.062-0.317-2.067-0.744-2.977
		c-0.149-0.317-0.325-0.619-0.513-0.911c-1.426-2.224-3.912-3.691-6.732-3.691h0H304h-16h-24v96h53.053l-0.421-8l-2.526-48
		L312.55,370.456z"/>
	<path style="fill:#5C546A;" d="M236.008,77.395c12.188-7.055,27.797-7.055,39.984,0c1.258,0.73,2.641,1.078,4,1.078
		c2.758,0,5.445-1.43,6.93-3.992c0.46-0.792,0.76-1.63,0.926-2.48c0.635-3.254-0.805-6.693-3.84-8.449
		c-17.063-9.883-38.953-9.883-56.016,0c-3.035,1.756-4.475,5.195-3.84,8.449c0.166,0.851,0.466,1.689,0.926,2.48
		C227.297,78.309,232.203,79.617,236.008,77.395z"/>
	<path style="fill:#E5001E;" d="M256,312L256,312c-4.418,0-8,3.582-8,8v40v96v16c0,4.418,3.582,8,8,8h0c4.418,0,8-3.582,8-8v-16v-96
		v-40C264,315.582,260.418,312,256,312z"/>
</g>
<g>
</g>
<g>
</g>
<g>
</g>
<g>
</g>
<g>
</g>
<g>
</g>
<g>
</g>
<g>
</g>
<g>
</g>
<g>
</g>
<g>
</g>
<g>
</g>
<g>
</g>
<g>
</g>
<g>
</g>
</svg>
